<svg xmlns="http://www.w3.org/2000/svg" xmlns:xlink="http://www.w3.org/1999/xlink" version="1.1" width="41.00954" height="58.5362" viewBox="0,0,41.00954,58.5362"><g><g data-paper-data="{&quot;isPaintingLayer&quot;:true}" fill-rule="nonzero" stroke-linejoin="miter" stroke-miterlimit="10" stroke-dasharray="" stroke-dashoffset="0" style="mix-blend-mode: normal"><path d="M 2.5 56.0362 L 2.5 2.5 L 38.5095 2.5 L 38.5095 56.0362 Z" fill="#bf671a" stroke="#994620" stroke-width="5" stroke-linecap="butt"></path><text transform="matrix(0.3208,0,0,0.3208,14.404770000000013,49.03557000000001)" font-size="40" xml:space="preserve" fill="#f9d742" fill-rule="nonzero" stroke="#f9d742" stroke-width="3" stroke-linecap="butt" stroke-linejoin="miter" stroke-miterlimit="10" stroke-dasharray="" stroke-dashoffset="0" font-family="Sans Serif" font-weight="normal" text-anchor="start" style="mix-blend-mode: normal"><tspan x="0" dy="0">60</tspan></text><g data-paper-data="{&quot;index&quot;:null}"><path d="M 21.6735 10.6884 C 26.0217 10.1203 30.2937 15.3788 31.2153 22.4335 C 32.137 29.4882 29.3592 35.6676 25.011 36.2356 C 20.6629 36.8037 16.3908 31.5452 15.4692 24.4905 C 14.5476 17.4358 17.3253 11.2564 21.6735 10.6884 Z" fill="#c5ffff" stroke-linecap="butt" stroke-width="2" stroke="#afafaf"></path><path d="M 23.31 19.4625 C 24.7742 19.2712 26.182 20.8067 26.4545 22.892 C 26.7269 24.9773 25.7608 26.8229 24.2966 27.0142 C 22.8324 27.2055 21.4246 25.67 21.1522 23.5847 C 20.8797 21.4994 21.8458 19.6538 23.31 19.4625 Z" fill="#c5ffff" stroke-linecap="butt" stroke-width="2" stroke="#afafaf"></path><path d="M 20.5629 11.5688 L 23.4707 19.4415" fill="none" stroke-linecap="round" stroke-width="2" stroke="#afafaf"></path><path d="M 24.2913 35.1041 L 24.3701 27.5766" fill="none" stroke-linecap="round" stroke-width="2" stroke="#afafaf"></path><path d="M 20.3488 23.6897 L 16.7058 24.5741" fill="none" stroke-linecap="round" stroke-width="2" stroke="#afafaf"></path><path d="M 26.58 21.9768 L 30.5444 21.0504" fill="none" stroke-linecap="round" stroke-width="2" stroke="#afafaf"></path></g><g stroke-linecap="butt"><path d="M230.90099,175.90272l11.8391,-10.5104l3.47712,-2.60173c0,0 0.54959,3.84924 -0.81014,5.57874c-1.35973,1.72951 -11.83907,10.5104 -11.83907,10.5104z" data-paper-data="{&quot;origPos&quot;:null}" fill="#68afd8" stroke-width="0" stroke="none" transform="matrix(1,0,0,1,-219.49523,-150.7319)"></path><path d="M225.71548,181.29186l5.31703,-5.48537l2.67613,2.98982l-6.18577,4.50655z" data-paper-data="{&quot;origPos&quot;:null}" fill="#c68323" stroke-width="0" stroke="none" transform="matrix(1,0,0,1,-219.49523,-150.7319)"></path></g></g></g></svg>