<svg version="1.1" xmlns="http://www.w3.org/2000/svg" xmlns:xlink="http://www.w3.org/1999/xlink" width="262.54116" height="222.34348" viewBox="0,0,262.54116,222.34348"><g transform="translate(-166.56758,-100.5)"><g data-paper-data="{&quot;isPaintingLayer&quot;:true}" fill-rule="nonzero" stroke-linejoin="miter" stroke-miterlimit="10" stroke-dasharray="" stroke-dashoffset="0" style="mix-blend-mode: normal"><g stroke="none" stroke-width="0" stroke-linecap="butt"><path d="M278.31873,194.47613l29.89172,-11.42299l4.99756,13.07763l-29.89172,11.42299z" fill="#c68322"/><path d="M304.42059,175.93718l10.27528,-3.92666l11.06602,28.95761l-10.27528,3.92666z" fill="#c68322"/><path d="M316.08497,181.24827l100.88457,-38.55262l4.19438,10.97587l-100.88457,38.55262z" fill="#62a8d0"/><path d="M418.00044,142.51009l11.1083,2.03193l-5.81641,9.17824l-11.1083,-2.03193z" fill="#62a8d0"/></g><path d="M214.5,128c0,-14.91169 12.08831,-27 27,-27c14.91169,0 27,12.08831 27,27c0,14.91169 -12.08831,27 -27,27c-14.91169,0 -27,-12.08831 -27,-27z" fill="#000000" stroke="#000000" stroke-width="1" stroke-linecap="butt"/><path d="M241,151l-1,91" fill="none" stroke="#000000" stroke-width="15" stroke-linecap="round"/><path d="M281.16384,202.83762c0,0 -23.99458,-8.924 -31.29266,-21.51486c-10.38653,-9.75606 -9.51436,-24.16033 -9.51436,-24.16033" fill="none" stroke="#000000" stroke-width="15" stroke-linecap="round"/><path d="M241.22132,244.65656c0,0 11.23789,18.76722 12.94741,30.98893c4.15939,10.04509 1.73913,39.698 1.73913,39.698" fill="none" stroke="#000000" stroke-width="15" stroke-linecap="round"/><path d="M241.58021,245.20588c0,0 -2.97546,19.36487 -10.89067,34.71051c-2.94785,11.18364 -14.14057,30.87777 -14.14057,30.87777" fill="none" stroke="#000000" stroke-width="15" stroke-linecap="round"/><g><path d="M225.16384,206.8376c0,0 -11.99458,-12.924 -10.29266,-24.51486c1.61347,-12.75606 19.48564,-25.16033 19.48564,-25.16033" fill="none" stroke="#000000" stroke-width="15" stroke-linecap="round"/><g data-paper-data="{&quot;index&quot;:null}" stroke="#afafaf" stroke-width="10"><path d="M198.96771,157.56386c19.20301,-2.5089 38.06949,20.71427 42.13957,51.87003c4.07052,31.15576 -8.19712,58.44592 -27.40013,60.95439c-19.20257,2.50891 -38.0695,-20.71427 -42.13957,-51.87003c-4.07008,-31.15576 8.19712,-58.44592 27.40013,-60.95438z" fill="#c5ffff" stroke-linecap="butt"/><path d="M206.19501,196.31303c6.46636,-0.84484 12.68365,5.93641 13.88709,15.14574c1.203,9.20934 -3.0636,17.36008 -9.52997,18.20493c-6.46636,0.84484 -12.68365,-5.93641 -13.88665,-15.14574c-1.20344,-9.20934 3.06316,-17.36008 9.52952,-18.20493z" fill="#c5ffff" stroke-linecap="butt"/><path d="M194.06295,161.45198l12.84176,34.76831" fill="none" stroke-linecap="round"/><path d="M210.52873,265.39122l0.34801,-33.24379" fill="none" stroke-linecap="round"/><path d="M193.11742,214.98167l-16.08863,3.90579" fill="none" stroke-linecap="round"/><path d="M238.14438,203.32569l-17.50803,4.09127" fill="none" stroke-linecap="round"/></g></g></g></g></svg>