<svg xmlns="http://www.w3.org/2000/svg" xmlns:xlink="http://www.w3.org/1999/xlink" version="1.1" width="187.40625" height="31" viewBox="0,0,187.40625,31"><g><g data-paper-data="{&quot;isPaintingLayer&quot;:true}" fill-rule="nonzero" stroke-linecap="butt" stroke-linejoin="miter" stroke-miterlimit="10" stroke-dasharray="" stroke-dashoffset="0" style="mix-blend-mode: normal"><text transform="matrix(0.5,0,0,0.5,1.25,24.5)" font-size="40" xml:space="preserve" fill="#000000" fill-rule="nonzero" stroke="#000000" stroke-width="3" stroke-linecap="butt" stroke-linejoin="miter" stroke-miterlimit="10" stroke-dasharray="" stroke-dashoffset="0" font-family="Serif" font-weight="normal" text-anchor="start" style="mix-blend-mode: normal"><tspan x="0" dy="0">press        to play again</tspan></text><path d="M 76.95 3.472 L 76.95 19.096 C 76.95 19.406 76.826 19.716 76.578 19.84 C 74.594 21.576 72.114 22.444 69.572 22.444 C 67.03 22.444 64.55 21.514 62.566 19.84 C 60.954 18.476 58.97 17.67 56.862 17.67 C 54.94 17.67 53.08 18.29 51.53 19.53 L 51.53 29.884 C 51.53 30.504 51.034 31 50.414 31 C 49.794 31 49.298 30.504 49.298 29.884 L 49.298 3.472 C 49.298 2.976 49.608 2.666 49.918 2.48 C 51.902 0.868 54.258 0 56.738 0 C 59.28 0 61.822 0.93 63.806 2.604 C 65.418 3.968 67.402 4.712 69.51 4.712 C 71.618 4.712 73.602 3.968 75.214 2.604 C 75.586 2.356 76.02 2.294 76.392 2.48 C 76.764 2.666 76.95 3.038 76.95 3.472 Z" fill="#549a10" stroke="none" stroke-width="1"></path></g></g></svg>