<svg version="1.1" xmlns="http://www.w3.org/2000/svg" xmlns:xlink="http://www.w3.org/1999/xlink" width="111.64021" height="245.4698" viewBox="0,0,111.64021,245.4698"><g transform="translate(-203.29139,-67.82434)"><g data-paper-data="{&quot;isPaintingLayer&quot;:true}" fill-rule="nonzero" stroke-linejoin="miter" stroke-miterlimit="10" stroke-dasharray="" stroke-dashoffset="0" style="mix-blend-mode: normal"><g stroke="none" stroke-width="0" stroke-linecap="butt"><path d="M257.21515,217.16769l9.52862,-30.54841l13.36493,4.16877l-9.52862,30.54841z" fill="#c68322"/><path d="M258.8089,185.19176l3.27546,-10.50102l29.59377,9.23085l-3.27546,10.50102z" fill="#c68322"/><path d="M270.19989,179.31717l32.15909,-103.10089l11.21699,3.49879l-32.15909,103.10089z" fill="#62a8d0"/><path d="M302.85129,75.29172l8.47121,-7.46738l3.6091,10.24914l-8.47121,7.46738z" fill="#62a8d0"/></g><path d="M214.5,128c0,-14.91169 12.08831,-27 27,-27c14.91169,0 27,12.08831 27,27c0,14.91169 -12.08831,27 -27,27c-14.91169,0 -27,-12.08831 -27,-27z" fill="#000000" stroke="#000000" stroke-width="1" stroke-linecap="butt"/><path d="M241,151l-1,91" fill="none" stroke="#000000" stroke-width="15" stroke-linecap="round"/><path d="M267.16384,216.8376c0,0 -26.99458,-20.924 -30.29266,-30.51486c-4.38653,-12.75606 -2.51436,-29.16033 -2.51436,-29.16033" fill="none" stroke="#000000" stroke-width="15" stroke-linecap="round"/><path d="M241.37598,158.28489l29.37723,54.43023" fill="none" stroke="#000000" stroke-width="15" stroke-linecap="round"/><path d="M239.22132,244.65654c0,0 -3.76211,20.76722 -8.05259,31.98893c-3.84061,10.04509 -14.26087,25.698 -14.26087,25.698" fill="none" stroke="#000000" stroke-width="15" stroke-linecap="round"/><path d="M241.58021,246.20586c0,0 13.02454,17.36487 15.10933,27.71051c2.05215,10.18364 0.85943,31.87777 0.85943,31.87777" fill="none" stroke="#000000" stroke-width="15" stroke-linecap="round"/><g stroke-width="5"><path d="M213.18055,129.15892c0,0 -12.78181,-13.82031 -9.28254,-22.89731c3.49928,-9.07703 15.38376,-10.21452 23.37479,-13.65755c8.2421,-3.55123 16.00344,-11.5344 25.34788,-7.33516c9.34443,4.19917 9.28254,22.89731 9.28254,22.89731c0,0 -15.41923,9.63208 -23.58107,13.14873c-8.07814,3.48059 -25.14157,7.84401 -25.14157,7.84401z" fill="#9f5500" stroke="none" stroke-linecap="butt"/><path d="M259.77755,107.28894l-21.27588,11.55771l-26.55878,7.25918" data-paper-data="{&quot;index&quot;:null}" fill="none" stroke="#dac1a2" stroke-linecap="round"/></g></g></g></svg>