<svg version="1.1" xmlns="http://www.w3.org/2000/svg" xmlns:xlink="http://www.w3.org/1999/xlink" width="100.9316" height="255.01913" viewBox="0,0,100.9316,255.01913"><g transform="translate(-214,-67.82434)"><g data-paper-data="{&quot;isPaintingLayer&quot;:true}" fill-rule="nonzero" stroke-linejoin="miter" stroke-miterlimit="10" stroke-dasharray="" stroke-dashoffset="0" style="mix-blend-mode: normal"><g stroke="none" stroke-width="0" stroke-linecap="butt"><path d="M257.21515,217.16769l9.52862,-30.54841l13.36493,4.16877l-9.52862,30.54841z" fill="#c68322"/><path d="M258.8089,185.19176l3.27546,-10.50102l29.59377,9.23085l-3.27546,10.50102z" fill="#c68322"/><path d="M270.19989,179.31717l32.15909,-103.10089l11.21699,3.49879l-32.15909,103.10089z" fill="#62a8d0"/><path d="M302.85129,75.29172l8.47121,-7.46738l3.6091,10.24914l-8.47121,7.46738z" fill="#62a8d0"/></g><path d="M214.5,128c0,-14.91169 12.08831,-27 27,-27c14.91169,0 27,12.08831 27,27c0,14.91169 -12.08831,27 -27,27c-14.91169,0 -27,-12.08831 -27,-27z" fill="#000000" stroke="#000000" stroke-width="1" stroke-linecap="butt"/><path d="M241,151l-1,91" fill="none" stroke="#000000" stroke-width="15" stroke-linecap="round"/><path d="M267.16384,216.8376c0,0 -26.99458,-20.924 -30.29266,-30.51486c-4.38653,-12.75606 -2.51436,-29.16033 -2.51436,-29.16033" fill="none" stroke="#000000" stroke-width="15" stroke-linecap="round"/><path d="M270.75321,212.71512l-29.37723,-54.43023" fill="none" stroke="#000000" stroke-width="15" stroke-linecap="round"/><path d="M241.22132,245.65654c0,0 5.23789,18.76722 6.94741,30.98893c4.15939,10.04509 -5.26087,38.698 -5.26087,38.698" fill="none" stroke="#000000" stroke-width="15" stroke-linecap="round"/><path d="M241.58021,245.20586c0,0 8.02454,22.36487 2.10933,35.71051c0.05215,10.18364 -14.14057,30.87777 -14.14057,30.87777" fill="none" stroke="#000000" stroke-width="15" stroke-linecap="round"/></g></g></svg>