<svg version="1.1" xmlns="http://www.w3.org/2000/svg" xmlns:xlink="http://www.w3.org/1999/xlink" width="68.05317" height="104" viewBox="0,0,68.05317,104"><g transform="translate(-205.97343,-128)"><g data-paper-data="{&quot;isPaintingLayer&quot;:true}" fill-rule="nonzero" stroke-linejoin="miter" stroke-miterlimit="10" stroke-dasharray="" stroke-dashoffset="0" style="mix-blend-mode: normal"><path d="M205.97344,164.5v-18.5c0,0 4.53256,-0.51064 7.98404,-0.51064c10.00761,0 57.51596,0.51064 57.51596,0.51064v18.5z" data-paper-data="{&quot;index&quot;:null}" fill="#8c4a4a" stroke="none" stroke-width="0" stroke-linecap="butt"></path><path d="M259.0266,164.5v-36h15v36z" data-paper-data="{&quot;index&quot;:null}" fill="#8c4a4a" stroke="none" stroke-width="0" stroke-linecap="butt"></path><path d="M232.52663,164v-27.06383l15,-8.93617v36z" data-paper-data="{&quot;index&quot;:null}" fill="#8c4a4a" stroke="none" stroke-width="0" stroke-linecap="butt"></path><path d="M217.3243,232v-74.5h47.20229v74.5z" data-paper-data="{&quot;index&quot;:null}" fill="#8c4a4a" stroke="none" stroke-width="0" stroke-linecap="butt"></path><path d="M233.52663,183v-17.5h14v17.5z" data-paper-data="{&quot;index&quot;:null}" fill="#000000" stroke="none" stroke-width="0" stroke-linecap="butt"></path><path d="M206.77662,164l-0.25,-4.5c0,0 21.03704,2.34359 34.50181,2.24348c12.7804,-0.09502 32.74819,-2.74348 32.74819,-2.74348v5z" data-paper-data="{&quot;index&quot;:null}" fill="#452525" stroke="none" stroke-width="0" stroke-linecap="butt"></path><path d="M217.80203,191.0848l3.8644,-4.0678l4.0678,3.8644l5.8983,-2.4407" data-paper-data="{&quot;index&quot;:null}" fill="none" stroke="#452525" stroke-width="2" stroke-linecap="round"></path><path d="M223.70033,188.8475l2.6441,-5.4916l4.678,-2.0339" data-paper-data="{&quot;index&quot;:null}" fill="none" stroke="#452525" stroke-width="2" stroke-linecap="round"></path><path d="M224.92072,198.6102l-3.6611,-4.8814l0.4068,-5.6949" data-paper-data="{&quot;index&quot;:null}" fill="none" stroke="#452525" stroke-width="2" stroke-linecap="round"></path><path d="M219.22583,179.6949h4.4745l2.4407,4.2712" data-paper-data="{&quot;index&quot;:null}" fill="none" stroke="#452525" stroke-width="2" stroke-linecap="round"></path><path d="M263.76811,215.0848l-5.4915,2.8474l-1.6271,-4.4746h-5.2882" data-paper-data="{&quot;index&quot;:null}" fill="none" stroke="#452525" stroke-width="2" stroke-linecap="round"></path><path d="M251.56471,224.6441l1.017,-6.1017l3.661,-4.2712" data-paper-data="{&quot;index&quot;:null}" fill="none" stroke="#452525" stroke-width="2" stroke-linecap="round"></path><path d="M261.53081,202.678v7.7288l-3.0508,6.7118" data-paper-data="{&quot;index&quot;:null}" fill="none" stroke="#452525" stroke-width="2" stroke-linecap="round"></path><path d="M255.83592,213.0508l-1.8305,-5.0847" data-paper-data="{&quot;index&quot;:null}" fill="none" stroke="#452525" stroke-width="2" stroke-linecap="round"></path><path d="M260.92071,210.8136l-3.2543,-4.4746l0.8136,-9.7627" data-paper-data="{&quot;index&quot;:null}" fill="none" stroke="#452525" stroke-width="2" stroke-linecap="round"></path><path d="M206.8883,159.29787v-19.65957l15,4.88004v14.77954z" data-paper-data="{&quot;index&quot;:null}" fill="#8c4a4a" stroke="none" stroke-width="0" stroke-linecap="butt"></path><path d="M257.61701,155.7234l7.4043,0.2553l4.5957,5.6171" fill="none" stroke="#452525" stroke-width="2" stroke-linecap="round"></path><path d="M262.72342,154.9574l-2.0426,-4.5957l3.5745,-3.0638" fill="none" stroke="#452525" stroke-width="2" stroke-linecap="round"></path><path d="M260.42553,155.9787l-3.0638,3.5745l-5.617,-2.8085" fill="none" stroke="#452525" stroke-width="2" stroke-linecap="round"></path><path d="M270.63831,147.0426v6.3829l-5.1064,2.8086" fill="none" stroke="#452525" stroke-width="2" stroke-linecap="round"></path><path d="M260.68082,150.3617l-5.617,0.766" fill="none" stroke="#452525" stroke-width="2" stroke-linecap="round"></path><path d="M232.75002,203.5v-21h15v21l-8.33333,7z" data-paper-data="{&quot;origPos&quot;:null}" fill="#ff0000" stroke="none" stroke-width="0" stroke-linecap="butt"></path></g></g></svg>