<svg xmlns="http://www.w3.org/2000/svg" xmlns:xlink="http://www.w3.org/1999/xlink" version="1.1" width="41.00954" height="58.5362" viewBox="0,0,41.00954,58.5362"><g><g data-paper-data="{&quot;isPaintingLayer&quot;:true}" fill-rule="nonzero" stroke-linejoin="miter" stroke-miterlimit="10" stroke-dasharray="" stroke-dashoffset="0" style="mix-blend-mode: normal"><path d="M 2.5 56.0362 L 2.5 2.5 L 38.5095 2.5 L 38.5095 56.0362 Z" fill="#bf671a" stroke="#994620" stroke-width="5" stroke-linecap="butt"></path><text transform="matrix(0.3208,0,0,0.3208,14.404770000000013,49.03557000000001)" font-size="40" xml:space="preserve" fill="#f9d742" fill-rule="nonzero" stroke="#f9d742" stroke-width="3" stroke-linecap="butt" stroke-linejoin="miter" stroke-miterlimit="10" stroke-dasharray="" stroke-dashoffset="0" font-family="Sans Serif" font-weight="normal" text-anchor="start" style="mix-blend-mode: normal"><tspan x="0" dy="0">40</tspan></text><g data-paper-data="{&quot;origRot&quot;:0}" stroke-linecap="butt"><path d="M 12.3886 31.705 L 14.0519 29.5864 L 21.1648 35.0966 L 19.5015 37.2151 Z" fill="#c68323" stroke-width="2.5" stroke="none"></path><path d="M230.26289,189.35803l4.59068,-5.84713l2.47874,1.92019l-4.59068,5.84713z" data-paper-data="{&quot;origPos&quot;:null}" fill="#c68323" stroke-width="0" stroke="none" transform="matrix(1,0,0,1,-219.49523,-150.7319)"></path><path d="M235.3127,181.82236l16.10064,-20.5073l3.89459,-1.20771l-0.23036,4.04625l-16.10064,20.50732z" data-paper-data="{&quot;origPos&quot;:null}" fill="#68afd8" stroke-width="0" stroke="none" transform="matrix(1,0,0,1,-219.49523,-150.7319)"></path></g><g><path d="M231.91983,175.80733c0,0 -5.37987,-3.03538 -5.16596,-6.16796c0.21391,-3.13259 3.84684,-4.62121 6.02742,-6.44755c2.24909,-1.88373 3.91287,-5.08733 7.26796,-4.68796c3.35508,0.39935 5.16596,6.16796 5.16596,6.16796c0,0 -3.91503,4.4451 -6.14222,6.31049c-2.20435,1.84626 -7.15315,4.82503 -7.15315,4.82503z" fill="#9f5500" stroke="none" stroke-width="0" stroke-linecap="butt" transform="matrix(1,0,0,1,-219.49523,-150.7319)"></path><path d="M 24.9644 13.8731 L 19.3927 19.4725 L 11.7358 24.253" data-paper-data="{&quot;index&quot;:null}" fill="none" stroke="#dac1a2" stroke-width="2" stroke-linecap="round"></path></g></g></g></svg>