<svg version="1.1" xmlns="http://www.w3.org/2000/svg" xmlns:xlink="http://www.w3.org/1999/xlink" width="119.02185" height="212.79414" viewBox="0,0,119.02185,212.79414"><g transform="translate(-209.40786,-100.5)"><g data-paper-data="{&quot;isPaintingLayer&quot;:true}" fill-rule="nonzero" stroke-linejoin="miter" stroke-miterlimit="10" stroke-dasharray="" stroke-dashoffset="0" style="mix-blend-mode: normal"><path d="M214.5,128c0,-14.91169 12.08831,-27 27,-27c14.91169,0 27,12.08831 27,27c0,14.91169 -12.08831,27 -27,27c-14.91169,0 -27,-12.08831 -27,-27z" fill="#000000" stroke="#000000" stroke-width="1" stroke-linecap="butt"/><path d="M241,151l-1,91" fill="none" stroke="#000000" stroke-width="15" stroke-linecap="round"/><path d="M267.16384,216.8376c0,0 -26.99458,-20.924 -30.29266,-30.51486c-4.38653,-12.75606 -2.51436,-29.16033 -2.51436,-29.16033" fill="none" stroke="#000000" stroke-width="15" stroke-linecap="round"/><path d="M241.37598,158.28489l29.37723,54.43023" fill="none" stroke="#000000" stroke-width="15" stroke-linecap="round"/><path d="M239.22132,244.65654c0,0 -3.76211,20.76722 -8.05259,31.98893c-3.84061,10.04509 -14.26087,25.698 -14.26087,25.698" fill="none" stroke="#000000" stroke-width="15" stroke-linecap="round"/><path d="M241.58021,246.20586c0,0 13.02454,17.36487 15.10933,27.71051c2.05215,10.18364 0.85943,31.87777 0.85943,31.87777" fill="none" stroke="#000000" stroke-width="15" stroke-linecap="round"/><path d="M264.70773,264.56017l-18.94221,-121.59822l58.44713,-9.10472l18.94221,121.59822l-25.83587,32.92521z" fill="#c8ffff" stroke="#afafaf" stroke-width="10" stroke-linecap="butt"/></g></g></svg>