<svg version="1.1" xmlns="http://www.w3.org/2000/svg" xmlns:xlink="http://www.w3.org/1999/xlink" width="203.4286" height="222.34347" viewBox="0,0,203.4286,222.34347"><g transform="translate(-209.04897,-100.5)"><g data-paper-data="{&quot;isPaintingLayer&quot;:true}" fill-rule="nonzero" stroke-linejoin="miter" stroke-miterlimit="10" stroke-dasharray="" stroke-dashoffset="0" style="mix-blend-mode: normal"><g stroke="none" stroke-width="0" stroke-linecap="butt"><path d="M275.01619,182.99222l26.93911,-17.27091l7.55602,11.78586l-26.93911,17.27091z" fill="#c68322"/><path d="M296.79572,159.52625l9.26031,-5.93688l16.73119,26.09726l-9.26031,5.93688z" fill="#c68322"/><path d="M309.29724,162.35066l90.9195,-58.28933l6.34167,9.89171l-90.9195,58.28933z" fill="#62a8d0"/><path d="M401.18825,103.66973l11.28932,-0.27279l-3.82543,10.17039l-11.28932,0.27279z" fill="#62a8d0"/></g><path d="M214.5,128c0,-14.91169 12.08831,-27 27,-27c14.91169,0 27,12.08831 27,27c0,14.91169 -12.08831,27 -27,27c-14.91169,0 -27,-12.08831 -27,-27z" fill="#000000" stroke="#000000" stroke-width="1" stroke-linecap="butt"/><path d="M241,151l-1,91" fill="none" stroke="#000000" stroke-width="15" stroke-linecap="round"/><path d="M291.16384,183.8376c0,0 -20.99458,0.076 -29.29266,-5.51486c-11.38653,-10.75606 -21.51436,-21.16033 -21.51436,-21.16033" fill="none" stroke="#000000" stroke-width="15" stroke-linecap="round"/><path d="M283.75321,192.71512c0,0 -17.7177,-0.36897 -25.70954,-5.54827c-10.17989,-6.59733 -16.66769,-28.88196 -16.66769,-28.88196" fill="none" stroke="#000000" stroke-width="15" stroke-linecap="round"/><path d="M241.22132,244.65654c0,0 11.23789,18.76722 12.94741,30.98893c4.15939,10.04509 1.73913,39.698 1.73913,39.698" fill="none" stroke="#000000" stroke-width="15" stroke-linecap="round"/><path d="M241.58021,245.20586c0,0 -2.97546,19.36487 -10.89067,34.71051c-2.94785,11.18364 -14.14057,30.87777 -14.14057,30.87777" fill="none" stroke="#000000" stroke-width="15" stroke-linecap="round"/></g></g></svg>