<svg version="1.1" xmlns="http://www.w3.org/2000/svg" xmlns:xlink="http://www.w3.org/1999/xlink" width="70.87462" height="89.2425" viewBox="0,0,70.87462,89.2425"><g transform="translate(-202.04233,-148.34751)"><g data-paper-data="{&quot;isPaintingLayer&quot;:true}" fill-rule="nonzero" stroke-linejoin="miter" stroke-miterlimit="10" stroke-dasharray="" stroke-dashoffset="0" style="mix-blend-mode: normal"><path d="M215.47345,232.00005l0.79069,-19.07901l7.3449,8.46883l-1.87529,-11.37946l4.70651,-11.3275l-9.68388,-18.87578l-1.28293,-22.30708l8.96727,-9.15254l20.76311,22.08633l17.47191,-12.93379v74.5z" data-paper-data="{&quot;index&quot;:null}" fill="#4a678c" stroke="none" stroke-width="0" stroke-linecap="butt"></path><path d="M232.47344,183.00005v-17.5h7.83169l5.35475,4.43219l0.81356,13.06781z" data-paper-data="{&quot;index&quot;:null}" fill="#000000" stroke="none" stroke-width="0" stroke-linecap="butt"></path><path d="M240.30677,210.50005l-8.33333,-7v-21h15l-4.67797,11.63558l4.67797,9.36442z" data-paper-data="{&quot;index&quot;:null}" fill="#66a8ff" stroke="none" stroke-width="0" stroke-linecap="butt"></path><path d="M248.36753,188.4407l5.8983,2.4407l4.0678,-3.8644l3.8644,4.0678" data-paper-data="{&quot;index&quot;:null}" fill="none" stroke="#253345" stroke-width="2" stroke-linecap="round"></path><path d="M248.97763,181.3221l4.678,2.0339l2.6441,5.4915" data-paper-data="{&quot;index&quot;:null}" fill="none" stroke="#253345" stroke-width="2" stroke-linecap="round"></path><path d="M260.44073,204.1017l-3.4577,-2.4406l-1.9037,-3.0509l3.661,-4.8813l-0.4067,-5.695" data-paper-data="{&quot;index&quot;:null}" fill="none" stroke="#253345" stroke-width="2" stroke-linecap="round"></path><path d="M253.85903,183.9662l2.4407,-4.2712h4.4746" data-paper-data="{&quot;index&quot;:null}" fill="none" stroke="#253345" stroke-width="2" stroke-linecap="round"></path><path d="M263.76813,215.0848l-5.4915,2.8475l-1.6271,-4.4746h-5.2882l-3.5308,2.4407l-5.8983,-1.4238" data-paper-data="{&quot;index&quot;:null}" fill="none" stroke="#253345" stroke-width="2" stroke-linecap="round"></path><path d="M251.56473,224.6441l1.017,-6.1017l3.661,-4.2712" data-paper-data="{&quot;index&quot;:null}" fill="none" stroke="#818181" stroke-width="2" stroke-linecap="round"></path><path d="M254.00543,207.9662l1.8305,5.0847" data-paper-data="{&quot;index&quot;:null}" fill="none" stroke="#253345" stroke-width="2" stroke-linecap="round"></path><path d="M248.03393,216.9153l-2.6441,4.0678" fill="none" stroke="#818181" stroke-width="2" stroke-linecap="round"></path><path d="M251.28823,214.0678l-3.2543,-3.4576l2.2373,-6.9152" fill="none" stroke="#253345" stroke-width="2" stroke-linecap="round"></path><path d="M247.62713,198.4068l4.0678,-3.661h5.8983" fill="none" stroke="#253345" stroke-width="2" stroke-linecap="round"></path><path d="M207.33642,233.93691l-5.29408,-35.60861l14.83692,-2.20586l5.29408,35.60861z" data-paper-data="{&quot;index&quot;:null}" fill="#4a678c" stroke="none" stroke-width="0" stroke-linecap="butt"></path><path d="M205.61214,237.42414l-1.55082,-18.43489c0,0 48.77461,-4.61557 59.05797,-5.48066c3.54658,-0.29835 8.24684,-0.18132 8.24684,-0.18132l1.55083,18.43489z" data-paper-data="{&quot;index&quot;:null}" fill="#4a678c" stroke="none" stroke-width="0" stroke-linecap="butt"></path><path d="M205.82269,237.59001l-0.48956,-4.97597c0,0 20.13116,0.68065 32.85946,-0.47615c13.40987,-1.21873 34.11637,-5.61084 34.11637,-5.61084l0.19181,4.50286z" data-paper-data="{&quot;index&quot;:null}" fill="#253345" stroke="none" stroke-width="0" stroke-linecap="butt"></path><path d="M209.58723,235.24l3.8928,-6.1252l7.3209,-1.1369" data-paper-data="{&quot;index&quot;:null}" fill="none" stroke="#253345" stroke-width="2" stroke-linecap="round"></path><path d="M213.20483,220.4046l3.9145,2.6155l-1.4797,4.8066" data-paper-data="{&quot;index&quot;:null}" fill="none" stroke="#253345" stroke-width="2" stroke-linecap="round"></path><path d="M226.75313,228.2913l-5.2418,3.4586l-3.4684,-3.1834" data-paper-data="{&quot;index&quot;:null}" fill="none" stroke="#253345" stroke-width="2" stroke-linecap="round"></path><path d="M212.95543,230.0993l-5.405,-2.1792l-0.7615,-6.3374" data-paper-data="{&quot;index&quot;:null}" fill="none" stroke="#253345" stroke-width="2" stroke-linecap="round"></path><path d="M217.11933,223.0201l5.6683,0.0903" data-paper-data="{&quot;index&quot;:null}" fill="none" stroke="#253345" stroke-width="2" stroke-linecap="round"></path><path d="M228.10173,163.6271l-1.0169,8.1356l-4.8814,7.1187l1.6271,4.8813l-2.4407,3.6611" fill="none" stroke="#253345" stroke-width="2" stroke-linecap="round"></path><path d="M223.22033,178.0678l5.4916,1.017l2.0339,3.2542" fill="none" stroke="#253345" stroke-width="2" stroke-linecap="round"></path><path d="M226.27123,188.6441l-3.0509,-4.2712" fill="none" stroke="#253345" stroke-width="2" stroke-linecap="round"></path><path d="M222.61023,179.2882l-3.4577,-3.6611l2.2373,-8.7457" fill="none" stroke="#253345" stroke-width="2" stroke-linecap="round"></path></g></g></svg>