<svg version="1.1" xmlns="http://www.w3.org/2000/svg" xmlns:xlink="http://www.w3.org/1999/xlink" width="158.47287" height="266.93696" viewBox="0,0,158.47287,266.93696"><g transform="translate(-209.04897,-55.90651)"><g data-paper-data="{&quot;isPaintingLayer&quot;:true}" fill-rule="nonzero" stroke-linejoin="miter" stroke-miterlimit="10" stroke-dasharray="" stroke-dashoffset="0" style="mix-blend-mode: normal"><g stroke="none" stroke-width="0" stroke-linecap="butt"><path d="M270.80425,182.19611l18.23861,-26.29359l11.50345,7.97939l-18.23861,26.29359z" fill="#c68322"/><path d="M281.8995,152.16454l6.26952,-9.03843l25.47192,17.66865l-6.26952,9.03843z" fill="#c68322"/><path d="M294.52689,149.97032l61.55531,-88.74089l9.65468,6.69699l-61.55531,88.74089z" fill="#62a8d0"/><path d="M356.82876,60.49471l10.31851,-4.5882l0.37458,10.85957l-10.31851,4.5882z" fill="#62a8d0"/></g><path d="M214.5,128c0,-14.91169 12.08831,-27 27,-27c14.91169,0 27,12.08831 27,27c0,14.91169 -12.08831,27 -27,27c-14.91169,0 -27,-12.08831 -27,-27z" fill="#000000" stroke="#000000" stroke-width="1" stroke-linecap="butt"/><path d="M240,242l1,-91" fill="none" stroke="#000000" stroke-width="15" stroke-linecap="round"/><path d="M285.16384,183.8376c0,0 -23.99458,1.076 -32.29266,-4.51486c-11.38653,-10.75606 -18.51436,-22.16033 -18.51436,-22.16033" fill="none" stroke="#000000" stroke-width="15" stroke-linecap="round"/><path d="M282.75321,182.71512c0,0 -12.7177,0.63103 -20.70954,-4.54827c-10.17989,-6.59733 -20.66769,-19.88196 -20.66769,-19.88196" fill="none" stroke="#000000" stroke-width="15" stroke-linecap="round"/><path d="M241.22132,244.65654c0,0 11.23789,18.76722 12.94741,30.98893c4.15939,10.04509 1.73913,39.698 1.73913,39.698" fill="none" stroke="#000000" stroke-width="15" stroke-linecap="round"/><path d="M241.58021,245.20586c0,0 -2.97546,19.36487 -10.89067,34.71051c-2.94785,11.18364 -14.14057,30.87777 -14.14057,30.87777" fill="none" stroke="#000000" stroke-width="15" stroke-linecap="round"/></g></g></svg>