<svg version="1.1" xmlns="http://www.w3.org/2000/svg" xmlns:xlink="http://www.w3.org/1999/xlink" width="91.79234" height="73.46019" viewBox="0,0,91.79234,73.46019"><g transform="translate(-204.97777,-165.88138)"><g data-paper-data="{&quot;isPaintingLayer&quot;:true}" fill-rule="nonzero" stroke-linejoin="miter" stroke-miterlimit="10" stroke-dasharray="" stroke-dashoffset="0" style="mix-blend-mode: normal"><path d="M215.36925,232.00007v-52.68058l17.47191,9.14577l20.76311,-15.61773l8.96727,6.47196l-1.28293,15.77382l-9.68388,13.34748l4.70651,8.00992l-1.87529,8.04666l7.3449,-5.98849l0.79069,13.49119z" data-paper-data="{&quot;index&quot;:null}" fill="#8c4a4a" stroke="none" stroke-width="0" stroke-linecap="butt"></path><path d="M230.07156,204.50007l0.81356,-13.06781l5.35475,-4.43219h7.83169v17.5z" data-paper-data="{&quot;index&quot;:null}" fill="#000000" stroke="none" stroke-width="0" stroke-linecap="butt"></path><path d="M215.84697,191.08479l3.8644,-4.0678l4.0678,3.8645l5.8983,-2.4407" data-paper-data="{&quot;index&quot;:null}" fill="none" stroke="#452525" stroke-width="2" stroke-linecap="round"></path><path d="M221.74527,188.84748l2.6441,-5.4915l4.678,-2.0339" data-paper-data="{&quot;index&quot;:null}" fill="none" stroke="#452525" stroke-width="2" stroke-linecap="round"></path><path d="M219.71137,188.03399l-0.4067,5.6949l3.661,4.8814l-1.9037,3.0508l-3.4577,2.4407" data-paper-data="{&quot;index&quot;:null}" fill="none" stroke="#452525" stroke-width="2" stroke-linecap="round"></path><path d="M217.27077,179.69498h4.4745l2.4407,4.2712" data-paper-data="{&quot;index&quot;:null}" fill="none" stroke="#452525" stroke-width="2" stroke-linecap="round"></path><path d="M235.24997,230.99998l-20.9731,-15.9152l5.4915,2.8475l1.6271,-4.4746h5.2882l3.5308,2.4407l5.8983,-1.4237" data-paper-data="{&quot;index&quot;:null}" fill="none" stroke="#000000" stroke-width="0.5" stroke-linecap="round"></path><path d="M221.80227,214.27128l3.661,4.2712l1.017,6.1017" data-paper-data="{&quot;index&quot;:null}" fill="none" stroke="#818181" stroke-width="2" stroke-linecap="round"></path><path d="M224.03957,207.96619l-1.8305,5.0847" data-paper-data="{&quot;index&quot;:null}" fill="none" stroke="#452525" stroke-width="2" stroke-linecap="round"></path><path d="M227.77377,203.69498l2.2373,6.9153l-3.2542,3.4576" data-paper-data="{&quot;index&quot;:null}" fill="none" stroke="#452525" stroke-width="2" stroke-linecap="round"></path><path d="M220.45177,194.74589h5.8983l4.0678,3.661" data-paper-data="{&quot;index&quot;:null}" fill="none" stroke="#452525" stroke-width="2" stroke-linecap="round"></path><path d="M204.97777,230.89276l2.0148,-18.38996c0,0 4.70172,0.00143 8.23965,0.38904c10.2583,1.1239 58.90114,6.96687 58.90114,6.96687l-2.01479,18.38996z" data-paper-data="{&quot;index&quot;:null}" fill="#8c4a4a" stroke="none" stroke-width="0" stroke-linecap="butt"></path><path d="M205.54423,231.02994l0.19181,-4.50286c0,0 20.7065,4.39211 34.11637,5.61084c12.7283,1.1568 32.85946,0.47615 32.85946,0.47615l-0.48956,4.97597z" data-paper-data="{&quot;index&quot;:null}" fill="#452525" stroke="none" stroke-width="0" stroke-linecap="butt"></path><path d="M257.24407,227.97799l7.3209,1.1368l3.8928,6.1252" data-paper-data="{&quot;index&quot;:null}" fill="none" stroke="#452525" stroke-width="2" stroke-linecap="round"></path><path d="M262.40537,227.82669l-1.4797,-4.8066l3.9145,-2.6155" data-paper-data="{&quot;index&quot;:null}" fill="none" stroke="#452525" stroke-width="2" stroke-linecap="round"></path><path d="M260.00207,228.56649l-3.4684,3.1835l-5.2418,-3.4586" data-paper-data="{&quot;index&quot;:null}" fill="none" stroke="#452525" stroke-width="2" stroke-linecap="round"></path><path d="M271.25607,221.58269l-0.7615,6.3374l-5.405,2.1793" data-paper-data="{&quot;index&quot;:null}" fill="none" stroke="#452525" stroke-width="2" stroke-linecap="round"></path><path d="M260.92567,223.02009l-5.6683,0.0904" data-paper-data="{&quot;index&quot;:null}" fill="none" stroke="#452525" stroke-width="2" stroke-linecap="round"></path><path d="M240.26857,195.55179l-2.7769,-3.413l1.1568,-5.0137l-5.5346,-6.6235l-1.784,-8.0025" data-paper-data="{&quot;index&quot;:null}" fill="none" stroke="#452525" stroke-width="2" stroke-linecap="round"></path><path d="M247.29917,182.33909l2.0339,-3.2543l5.4916,-1.0169" data-paper-data="{&quot;index&quot;:null}" fill="none" stroke="#452525" stroke-width="2" stroke-linecap="round"></path><path d="M254.82467,184.37289l-3.0509,4.2712" data-paper-data="{&quot;index&quot;:null}" fill="none" stroke="#452525" stroke-width="2" stroke-linecap="round"></path><path d="M256.65517,166.88139l2.2373,8.7458l-3.4577,3.661" data-paper-data="{&quot;index&quot;:null}" fill="none" stroke="#452525" stroke-width="2" stroke-linecap="round"></path><path d="M242.05342,231.63713l-0.06857,-10.46762l-9.43897,-8.25688l13.37464,-6.7911l9.50754,18.72449l-4.26117,10.01433z" data-paper-data="{&quot;index&quot;:null}" fill="#ff0000" stroke="none" stroke-width="0" stroke-linecap="butt"></path><path d="M230.74997,193.99998l23,8" fill="none" stroke="#000000" stroke-width="0.5" stroke-linecap="round"></path><path d="M247.24997,187.99998l-13,18" fill="none" stroke="#000000" stroke-width="0.5" stroke-linecap="round"></path><path d="M247.24997,201.49998l-14,-12" fill="none" stroke="#000000" stroke-width="0.5" stroke-linecap="round"></path><path d="M248.24997,195.49998l-16,7.5l7.5,-13.5" fill="none" stroke="#000000" stroke-width="0.5" stroke-linecap="round"></path><path d="M224.24997,222.49998l-10.5,6" fill="none" stroke="#000000" stroke-width="0.5" stroke-linecap="round"></path><path d="M223.74997,227.99998l-10,-8.5" fill="none" stroke="#000000" stroke-width="0.5" stroke-linecap="round"></path><path d="M232.74997,225.49998l-2.7389,-8.5847l2.6441,4.0678" fill="none" stroke="#000000" stroke-width="0.5" stroke-linecap="round"></path><path d="M251.24997,215.99998l-5,15.5" fill="none" stroke="#000000" stroke-width="0.5" stroke-linecap="round"></path><path d="M254.24997,229.49998l-11.5,-5" fill="none" stroke="#000000" stroke-width="0.5" stroke-linecap="round"></path><g><path d="M259.10421,224.47301l35.68457,-4.75519l1.98133,14.86857l-35.68457,4.75519z" data-paper-data="{&quot;index&quot;:null}" fill="#8c4a4a" stroke="none" stroke-width="0" stroke-linecap="butt"></path><path d="M279.71067,235.58839l4.99,-13.4015" fill="none" stroke="#000000" stroke-width="0.5" stroke-linecap="round"></path><path d="M277.07827,222.81849l16.1593,10.9603" fill="none" stroke="#000000" stroke-width="0.5" stroke-linecap="round"></path></g></g></g></svg>