<svg version="1.1" xmlns="http://www.w3.org/2000/svg" xmlns:xlink="http://www.w3.org/1999/xlink" width="116.88263" height="277.01913" viewBox="0,0,116.88263,277.01913"><g transform="translate(-209.04897,-45.82434)"><g data-paper-data="{&quot;isPaintingLayer&quot;:true}" fill-rule="nonzero" stroke-linejoin="miter" stroke-miterlimit="10" stroke-dasharray="" stroke-dashoffset="0" style="mix-blend-mode: normal"><g stroke="none" stroke-width="0" stroke-linecap="butt"><path d="M268.21515,195.16769l9.52862,-30.54841l13.36493,4.16877l-9.52862,30.54841z" fill="#c68322"/><path d="M269.8089,163.19176l3.27546,-10.50102l29.59377,9.23085l-3.27546,10.50102z" fill="#c68322"/><path d="M281.19989,157.31717l32.15909,-103.10089l11.21699,3.49879l-32.15909,103.10089z" fill="#62a8d0"/><path d="M313.85129,53.29172l8.47121,-7.46738l3.6091,10.24914l-8.47121,7.46738z" fill="#62a8d0"/></g><path d="M214.5,128c0,-14.91169 12.08831,-27 27,-27c14.91169,0 27,12.08831 27,27c0,14.91169 -12.08831,27 -27,27c-14.91169,0 -27,-12.08831 -27,-27z" fill="#000000" stroke="#000000" stroke-width="1" stroke-linecap="butt"/><path d="M241,151l-1,91" fill="none" stroke="#000000" stroke-width="15" stroke-linecap="round"/><path d="M280.16384,196.8376c0,0 -29.99458,-3.924 -33.29266,-13.51486c-11.38653,-10.75606 -12.51436,-26.16033 -12.51436,-26.16033" fill="none" stroke="#000000" stroke-width="15" stroke-linecap="round"/><path d="M280.75321,192.71512c0,0 -11.7177,-5.36897 -19.70954,-10.54827c-10.17989,-6.59733 -19.66769,-23.88196 -19.66769,-23.88196" fill="none" stroke="#000000" stroke-width="15" stroke-linecap="round"/><path d="M241.22132,244.65654c0,0 11.23789,18.76722 12.94741,30.98893c4.15939,10.04509 1.73913,39.698 1.73913,39.698" fill="none" stroke="#000000" stroke-width="15" stroke-linecap="round"/><path d="M241.58021,245.20586c0,0 -2.97546,19.36487 -10.89067,34.71051c-2.94785,11.18364 -14.14057,30.87777 -14.14057,30.87777" fill="none" stroke="#000000" stroke-width="15" stroke-linecap="round"/></g></g></svg>