<svg version="1.1" xmlns="http://www.w3.org/2000/svg" xmlns:xlink="http://www.w3.org/1999/xlink" width="226.95624" height="239.12458" viewBox="0,0,226.95624,239.12458"><g transform="translate(-166.56758,-83.71889)"><g data-paper-data="{&quot;isPaintingLayer&quot;:true}" fill-rule="nonzero" stroke-linejoin="miter" stroke-miterlimit="10" stroke-dasharray="" stroke-dashoffset="0" style="mix-blend-mode: normal"><g stroke="none" stroke-width="0" stroke-linecap="butt"><path d="M275.8806,190.44805l22.70349,-22.55108l9.8661,9.93278l-22.70349,22.55108z" fill="#c68322"/><path d="M292.23684,162.92582l7.80432,-7.75194l21.84636,21.99401l-7.80432,7.75194z" fill="#c68322"/><path d="M305.05277,163.05737l76.62429,-76.10992l8.28048,8.33644l-76.62429,76.10992z" fill="#62a8d0"/><path d="M382.54446,86.36026l10.97936,-2.64137l-1.60052,10.74751l-10.97936,2.64137z" fill="#62a8d0"/></g><path d="M214.5,128c0,-14.91169 12.08831,-27 27,-27c14.91169,0 27,12.08831 27,27c0,14.91169 -12.08831,27 -27,27c-14.91169,0 -27,-12.08831 -27,-27z" fill="#000000" stroke="#000000" stroke-width="1" stroke-linecap="butt"/><path d="M241,151l-1,91" fill="none" stroke="#000000" stroke-width="15" stroke-linecap="round"/><path d="M291.16384,183.8376c0,0 -20.99458,0.076 -29.29266,-5.51486c-11.38653,-10.75606 -21.51436,-21.16033 -21.51436,-21.16033" fill="none" stroke="#000000" stroke-width="15" stroke-linecap="round"/><path d="M241.22132,244.65654c0,0 11.23789,18.76722 12.94741,30.98893c4.15939,10.04509 1.73913,39.698 1.73913,39.698" fill="none" stroke="#000000" stroke-width="15" stroke-linecap="round"/><path d="M241.58021,245.20586c0,0 -2.97546,19.36487 -10.89067,34.71051c-2.94785,11.18364 -14.14057,30.87777 -14.14057,30.87777" fill="none" stroke="#000000" stroke-width="15" stroke-linecap="round"/><g><path d="M225.16384,206.8376c0,0 -11.99458,-12.924 -10.29266,-24.51486c1.61347,-12.75606 19.48564,-25.16033 19.48564,-25.16033" fill="none" stroke="#000000" stroke-width="15" stroke-linecap="round"/><g data-paper-data="{&quot;index&quot;:null}" stroke="#afafaf" stroke-width="10"><path d="M198.96771,157.56386c19.20301,-2.5089 38.06949,20.71427 42.13957,51.87003c4.07052,31.15576 -8.19712,58.44592 -27.40013,60.95439c-19.20257,2.50891 -38.0695,-20.71427 -42.13957,-51.87003c-4.07008,-31.15576 8.19712,-58.44592 27.40013,-60.95438z" fill="#c5ffff" stroke-linecap="butt"/><path d="M206.19501,196.31303c6.46636,-0.84484 12.68365,5.93641 13.88709,15.14574c1.203,9.20934 -3.0636,17.36008 -9.52997,18.20493c-6.46636,0.84484 -12.68365,-5.93641 -13.88665,-15.14574c-1.20344,-9.20934 3.06316,-17.36008 9.52952,-18.20493z" fill="#c5ffff" stroke-linecap="butt"/><path d="M194.06295,161.45198l12.84176,34.76831" fill="none" stroke-linecap="round"/><path d="M210.52873,265.39122l0.34801,-33.24379" fill="none" stroke-linecap="round"/><path d="M193.11742,214.98167l-16.08863,3.90579" fill="none" stroke-linecap="round"/><path d="M238.14438,203.32569l-17.50803,4.09127" fill="none" stroke-linecap="round"/></g></g></g></g></svg>