<svg version="1.1" xmlns="http://www.w3.org/2000/svg" xmlns:xlink="http://www.w3.org/1999/xlink" width="100.86811" height="217.79414" viewBox="0,0,100.86811,217.79414"><g transform="translate(-212.40786,-100.5)"><g data-paper-data="{&quot;isPaintingLayer&quot;:true}" fill-rule="nonzero" stroke-linejoin="miter" stroke-miterlimit="10" stroke-dasharray="" stroke-dashoffset="0" style="mix-blend-mode: normal"><path d="M214.5,128c0,-14.91169 12.08831,-27 27,-27c14.91169,0 27,12.08831 27,27c0,14.91169 -12.08831,27 -27,27c-14.91169,0 -27,-12.08831 -27,-27z" fill="#000000" stroke="#000000" stroke-width="1" stroke-linecap="butt"/><path d="M241,151l-1,91" fill="none" stroke="#000000" stroke-width="15" stroke-linecap="round"/><path d="M267.16384,216.8376c0,0 -26.99458,-20.924 -30.29266,-30.51486c-4.38653,-12.75606 -2.51436,-29.16033 -2.51436,-29.16033" fill="none" stroke="#000000" stroke-width="15" stroke-linecap="round"/><path d="M241.37598,158.28489l29.37723,54.43023" fill="none" stroke="#000000" stroke-width="15" stroke-linecap="round"/><path d="M238.22132,245.65654c0,0 5.23789,22.76722 0.94741,33.98893c-3.84061,10.04509 -19.26087,26.698 -19.26087,26.698" fill="none" stroke="#000000" stroke-width="15" stroke-linecap="round"/><path d="M240.58021,245.20586c0,0 15.02454,12.36487 15.10933,27.71051c2.05215,10.18364 -8.14057,37.87777 -8.14057,37.87777" fill="none" stroke="#000000" stroke-width="15" stroke-linecap="round"/><path d="M249.55399,271.29516l-18.94221,-121.59822l58.44713,-9.10472l18.94221,121.59822l-25.83587,32.92521z" fill="#c8ffff" stroke="#afafaf" stroke-width="10" stroke-linecap="butt"/></g></g></svg>