<svg version="1.1" xmlns="http://www.w3.org/2000/svg" xmlns:xlink="http://www.w3.org/1999/xlink" width="68.85564" height="60.08861" viewBox="0,0,68.85564,60.08861"><g transform="translate(-204.5613,-179.83502)"><g data-paper-data="{&quot;isPaintingLayer&quot;:true}" fill-rule="nonzero" stroke-linejoin="miter" stroke-miterlimit="10" stroke-dasharray="" stroke-dashoffset="0" style="mix-blend-mode: normal"><path d="M224.44211,239.92363l-1.09678,-13.60226l6.49648,5.4095l-2.48683,-7.92131l2.65752,-8.42179l-9.25802,-12.6029l-3.00609,-15.72347l6.18012,-7.22638l18.19816,13.97645l12.48159,-10.60373l6.69371,52.86223z" data-paper-data="{&quot;index&quot;:null}" fill="#4a678c" stroke="none" stroke-width="0" stroke-linecap="butt"></path><path d="M220.42721,201.13313v-17.5h7.83169l5.35475,4.43219l0.81356,13.06781z" data-paper-data="{&quot;index&quot;:null}" fill="#000000" stroke="none" stroke-width="0" stroke-linecap="butt"></path><path d="M246.89084,228.89928l-8.33333,-7v-21h15l-4.67797,11.63558l4.67797,9.36442z" data-paper-data="{&quot;index&quot;:null}" fill="#66a8ff" stroke="none" stroke-width="0" stroke-linecap="butt"></path><path d="M252.86752,228.9407l5.8983,2.4407l4.0678,-3.8644l3.8644,4.0678" data-paper-data="{&quot;index&quot;:null}" fill="none" stroke="#818181" stroke-width="2" stroke-linecap="round"></path><path d="M228.03773,216.20744l4.678,2.0339l2.6441,5.4915" data-paper-data="{&quot;index&quot;:null}" fill="none" stroke="#253345" stroke-width="2" stroke-linecap="round"></path><path d="M253.94072,233.1017l-3.4577,-2.4406l-1.9037,-3.0509l3.661,-4.8813l-0.4067,-5.695" data-paper-data="{&quot;index&quot;:null}" fill="none" stroke="#253345" stroke-width="2" stroke-linecap="round"></path><path d="M260.85902,232.9662l2.4407,-4.2712h4.4746" data-paper-data="{&quot;index&quot;:null}" fill="none" stroke="#818181" stroke-width="2" stroke-linecap="round"></path><path d="M249.76812,203.5848l-5.4915,2.8475l-1.6271,-4.4746h-5.2882l-3.5308,2.4407l-5.8983,-1.4238" data-paper-data="{&quot;index&quot;:null}" fill="none" stroke="#253345" stroke-width="2" stroke-linecap="round"></path><path d="M251.56472,224.6441l1.017,-6.1017l3.661,-4.2712" data-paper-data="{&quot;index&quot;:null}" fill="none" stroke="#253345" stroke-width="2" stroke-linecap="round"></path><path d="M254.00542,207.9662l1.8305,5.0847" data-paper-data="{&quot;index&quot;:null}" fill="none" stroke="#253345" stroke-width="2" stroke-linecap="round"></path><path d="M248.03392,216.9153l-2.6441,4.0678" fill="none" stroke="#253345" stroke-width="2" stroke-linecap="round"></path><path d="M246.28822,226.5678l-3.2543,-3.4576l2.2373,-6.9152" fill="none" stroke="#253345" stroke-width="2" stroke-linecap="round"></path><path d="M256.12712,230.9068l4.0678,-3.661h5.8983" fill="none" stroke="#818181" stroke-width="2" stroke-linecap="round"></path><path d="M212.04474,233.93691l-3.61406,-24.30862l10.12859,-1.50585l3.61406,24.30862z" data-paper-data="{&quot;index&quot;:null}" fill="#4a678c" stroke="none" stroke-width="0" stroke-linecap="butt"></path><path d="M206.11213,237.42414l-1.55082,-15.75979c0,0 48.77461,-3.9458 59.05797,-4.68536c3.54658,-0.25506 8.24684,-0.15501 8.24684,-0.15501l1.55083,15.75979z" data-paper-data="{&quot;index&quot;:null}" fill="#4a678c" stroke="none" stroke-width="0" stroke-linecap="butt"></path><path d="M208.95979,238.73222l-1.41923,-4.79434c0,0 19.89827,-3.12824 32.17998,-6.66481c12.93937,-3.72592 32.44595,-11.9444 32.44595,-11.9444l1.03759,4.38588z" data-paper-data="{&quot;index&quot;:null}" fill="#253345" stroke="none" stroke-width="0" stroke-linecap="butt"></path><path d="M209.58722,235.24l3.8928,-6.1252l7.3209,-1.1369" data-paper-data="{&quot;index&quot;:null}" fill="none" stroke="#253345" stroke-width="2" stroke-linecap="round"></path><path d="M213.20482,220.4046l3.9145,2.6155l-1.4797,4.8066" data-paper-data="{&quot;index&quot;:null}" fill="none" stroke="#253345" stroke-width="2" stroke-linecap="round"></path><path d="M226.75312,228.2913l-5.2418,3.4586l-3.4684,-3.1834" data-paper-data="{&quot;index&quot;:null}" fill="none" stroke="#253345" stroke-width="2" stroke-linecap="round"></path><path d="M212.95542,230.0993l-5.405,-2.1792l-0.7615,-6.3374" data-paper-data="{&quot;index&quot;:null}" fill="none" stroke="#253345" stroke-width="2" stroke-linecap="round"></path><path d="M222.78762,223.1104l-5.6683,-0.0903" data-paper-data="{&quot;index&quot;:null}" fill="none" stroke="#253345" stroke-width="2" stroke-linecap="round"></path><path d="M239.60172,190.6271l-1.0169,8.1356l-4.8814,7.1187l1.6271,4.8813l-2.4407,3.6611" fill="none" stroke="#253345" stroke-width="2" stroke-linecap="round"></path><path d="M244.8395,197.14355l5.4916,1.017l2.0339,3.2542" fill="none" stroke="#253345" stroke-width="2" stroke-linecap="round"></path><path d="M249.22032,202.8729l3.0509,4.2712" fill="none" stroke="#253345" stroke-width="2" stroke-linecap="round"></path><path d="M241.11022,232.2882l-3.4577,-3.6611l2.2373,-8.7457" fill="none" stroke="#253345" stroke-width="2" stroke-linecap="round"></path></g></g></svg>