<svg version="1.1" xmlns="http://www.w3.org/2000/svg" xmlns:xlink="http://www.w3.org/1999/xlink" width="70.87463" height="89.24251" viewBox="0,0,70.87463,89.24251"><g transform="translate(-205.12803,-148.34751)"><g data-paper-data="{&quot;isPaintingLayer&quot;:true}" fill-rule="nonzero" stroke-linejoin="miter" stroke-miterlimit="10" stroke-dasharray="" stroke-dashoffset="0" style="mix-blend-mode: normal"><path d="M215.36925,232.00005v-74.5l17.47191,12.93379l20.76311,-22.08633l8.96727,9.15254l-1.28293,22.30708l-9.68388,18.87578l4.70651,11.3275l-1.87529,11.37946l7.3449,-8.46883l0.79069,19.07901z" data-paper-data="{&quot;index&quot;:null}" fill="#8c4a4a" stroke="none" stroke-width="0" stroke-linecap="butt"></path><path d="M231.57156,183.00005l0.81356,-13.06781l5.35475,-4.43219h7.83169v17.5z" data-paper-data="{&quot;index&quot;:null}" fill="#000000" stroke="none" stroke-width="0" stroke-linecap="butt"></path><path d="M231.07156,203.50005l4.67797,-9.36442l-4.67797,-11.63558h15v21l-8.33333,7z" data-paper-data="{&quot;index&quot;:null}" fill="#ff0000" stroke="none" stroke-width="0" stroke-linecap="butt"></path><path d="M215.84703,191.08481l3.8643,-4.0678l4.0679,3.8644l5.8983,-2.4407" data-paper-data="{&quot;index&quot;:null}" fill="none" stroke="#452525" stroke-width="2" stroke-linecap="round"></path><path d="M221.74533,188.84751l2.644,-5.4915l4.678,-2.0339" data-paper-data="{&quot;index&quot;:null}" fill="none" stroke="#452525" stroke-width="2" stroke-linecap="round"></path><path d="M219.71143,188.0339l-0.4068,5.695l3.661,4.8813l-1.9037,3.0509l-3.4576,2.4406" data-paper-data="{&quot;index&quot;:null}" fill="none" stroke="#452525" stroke-width="2" stroke-linecap="round"></path><path d="M217.27073,179.695h4.4746l2.4406,4.2712" data-paper-data="{&quot;index&quot;:null}" fill="none" stroke="#452525" stroke-width="2" stroke-linecap="round"></path><path d="M236.11273,214.47461l-5.8983,1.4237l-3.5308,-2.4406h-5.2881l-1.6272,4.4746l-5.4915,-2.8475" data-paper-data="{&quot;index&quot;:null}" fill="none" stroke="#452525" stroke-width="2" stroke-linecap="round"></path><path d="M221.80223,214.2712l3.6611,4.2712l1.0169,6.1017" data-paper-data="{&quot;index&quot;:null}" fill="none" stroke="#818181" stroke-width="2" stroke-linecap="round"></path><path d="M224.03953,207.9662l-1.8305,5.0847" data-paper-data="{&quot;index&quot;:null}" fill="none" stroke="#452525" stroke-width="2" stroke-linecap="round"></path><path d="M232.65513,220.98311l-2.6441,-4.0678" data-paper-data="{&quot;index&quot;:null}" fill="none" stroke="#818181" stroke-width="2" stroke-linecap="round"></path><path d="M227.77373,203.695l2.2373,6.9152l-3.2542,3.4577" data-paper-data="{&quot;index&quot;:null}" fill="none" stroke="#452525" stroke-width="2" stroke-linecap="round"></path><path d="M220.45173,194.74581h5.8983l4.0678,3.661" data-paper-data="{&quot;index&quot;:null}" fill="none" stroke="#452525" stroke-width="2" stroke-linecap="round"></path><path d="M255.87166,231.73106l5.29408,-35.60861l14.83692,2.20586l-5.29408,35.60861z" data-paper-data="{&quot;index&quot;:null}" fill="#8c4a4a" stroke="none" stroke-width="0" stroke-linecap="butt"></path><path d="M205.12803,231.76217l1.55083,-18.43489c0,0 4.70026,-0.11703 8.24684,0.18132c10.28336,0.86509 59.05797,5.48066 59.05797,5.48066l-1.55082,18.43489z" data-paper-data="{&quot;index&quot;:null}" fill="#8c4a4a" stroke="none" stroke-width="0" stroke-linecap="butt"></path><path d="M205.54423,231.02992l0.19181,-4.50286c0,0 20.7065,4.39211 34.11637,5.61084c12.7283,1.1568 32.85946,0.47615 32.85946,0.47615l-0.48956,4.97597z" data-paper-data="{&quot;index&quot;:null}" fill="#452525" stroke="none" stroke-width="0" stroke-linecap="butt"></path><path d="M257.24403,227.9779l7.321,1.1369l3.8928,6.1252" data-paper-data="{&quot;index&quot;:null}" fill="none" stroke="#452525" stroke-width="2" stroke-linecap="round"></path><path d="M262.40533,227.82671l-1.4796,-4.8066l3.9144,-2.6155" data-paper-data="{&quot;index&quot;:null}" fill="none" stroke="#452525" stroke-width="2" stroke-linecap="round"></path><path d="M260.00203,228.5665l-3.4684,3.1834l-5.2418,-3.4586" data-paper-data="{&quot;index&quot;:null}" fill="none" stroke="#452525" stroke-width="2" stroke-linecap="round"></path><path d="M271.25603,221.5827l-0.7615,6.3374l-5.4049,2.1792" data-paper-data="{&quot;index&quot;:null}" fill="none" stroke="#452525" stroke-width="2" stroke-linecap="round"></path><path d="M255.25743,223.11041l5.6683,-0.0903" data-paper-data="{&quot;index&quot;:null}" fill="none" stroke="#452525" stroke-width="2" stroke-linecap="round"></path><path d="M256.65513,187.42381l-2.4407,-3.6611l1.6272,-4.8813l-4.8814,-7.1187l-1.017,-8.1356" data-paper-data="{&quot;index&quot;:null}" fill="none" stroke="#452525" stroke-width="2" stroke-linecap="round"></path><path d="M247.29923,182.33901l2.0339,-3.2542l5.4915,-1.017" data-paper-data="{&quot;index&quot;:null}" fill="none" stroke="#452525" stroke-width="2" stroke-linecap="round"></path><path d="M251.77373,188.6441l3.0509,-4.2712" data-paper-data="{&quot;index&quot;:null}" fill="none" stroke="#452525" stroke-width="2" stroke-linecap="round"></path><path d="M256.65513,166.8814l2.2373,8.7457l-3.4576,3.6611" data-paper-data="{&quot;index&quot;:null}" fill="none" stroke="#452525" stroke-width="2" stroke-linecap="round"></path></g></g></svg>