<svg version="1.1" xmlns="http://www.w3.org/2000/svg" xmlns:xlink="http://www.w3.org/1999/xlink" width="71.87075" height="123.72643" viewBox="0,0,71.87075,123.72643"><g transform="translate(-206.25,-108.27357)"><g data-paper-data="{&quot;isPaintingLayer&quot;:true}" fill-rule="nonzero" stroke-linejoin="miter" stroke-miterlimit="10" stroke-dasharray="" stroke-dashoffset="0" style="mix-blend-mode: normal"><g stroke="#000000"><path d="M256.46678,132.8755c0,0 -0.31777,6.56581 -0.58691,10.39449c-0.15667,2.22868 -5.67371,7.65641 -5.67371,7.65641" fill="none" stroke-width="5" stroke-linecap="round"/><path d="M238.78302,141.53528c0,-4.04054 3.2755,-7.31604 7.31604,-7.31604c4.04054,0 7.31604,3.2755 7.31604,7.31604c0,4.04054 -3.2755,7.31604 -7.31604,7.31604c-4.04054,0 -7.31604,-3.2755 -7.31604,-7.31604z" fill="#000000" stroke-width="1" stroke-linecap="butt"/></g><path d="M278.12075,111.11267v12.77592c0,0.25349 -0.1014,0.50698 -0.30419,0.60838c-1.62234,1.41955 -3.65026,2.12932 -5.72889,2.12932c-2.07862,0 -4.10655,-0.76047 -5.72889,-2.12932c-1.31815,-1.11536 -2.94049,-1.77443 -4.66423,-1.77443c-1.57164,0 -3.09258,0.50698 -4.36004,1.52094v8.46658c0,0.50698 -0.40558,0.91257 -0.91257,0.91257c-0.50698,0 -0.91257,-0.40558 -0.91257,-0.91257v-21.5974c0,-0.40558 0.25349,-0.65908 0.50698,-0.81117c1.62234,-1.31815 3.54887,-2.02792 5.57679,-2.02792c2.07862,0 4.15725,0.76047 5.77958,2.12932c1.31815,1.11536 2.94049,1.72374 4.66423,1.72374c1.72374,0 3.34608,-0.60838 4.66423,-1.72374c0.30419,-0.20279 0.65908,-0.25349 0.96326,-0.1014c0.30419,0.15209 0.45628,0.45628 0.45628,0.81117z" fill="#ff0000" stroke="none" stroke-width="1" stroke-linecap="butt"/><path d="M208.25,164.5v-18.5h65.5v18.5z" fill="#8c4a4a" stroke="none" stroke-width="0" stroke-linecap="butt"/><path d="M206.25,164.5v-36h15v36z" data-paper-data="{&quot;origPos&quot;:null}" fill="#8c4a4a" stroke="none" stroke-width="0" stroke-linecap="butt"/><path d="M258.75,164.5v-36h15v36z" data-paper-data="{&quot;origPos&quot;:null}" fill="#8c4a4a" stroke="none" stroke-width="0" stroke-linecap="butt"/><path d="M232.25,164v-36h15v36z" data-paper-data="{&quot;origPos&quot;:null}" fill="#8c4a4a" stroke="none" stroke-width="0" stroke-linecap="butt"/><path d="M217.04771,232v-74.5h47.20229v74.5z" data-paper-data="{&quot;origPos&quot;:null}" fill="#8c4a4a" stroke="none" stroke-width="0" stroke-linecap="butt"/><path d="M233.25,183v-17.5h14v17.5z" fill="#000000" stroke="none" stroke-width="0" stroke-linecap="butt"/><path d="M206.5,164l-0.25,-4.5c0,0 21.03704,2.34359 34.50181,2.24348c12.7804,-0.09502 32.74819,-2.74348 32.74819,-2.74348v5z" data-paper-data="{&quot;origPos&quot;:null}" fill="#452525" stroke="none" stroke-width="0" stroke-linecap="butt"/><path d="M232.75,203.5v-21h15v21l-8.33333,7z" data-paper-data="{&quot;origPos&quot;:null}" fill="#ff0000" stroke="none" stroke-width="0" stroke-linecap="butt"/></g></g></svg>