<svg version="1.1" xmlns="http://www.w3.org/2000/svg" xmlns:xlink="http://www.w3.org/1999/xlink" width="182.23243" height="250.12458" viewBox="0,0,182.23243,250.12458"><g transform="translate(-203.29139,-72.71889)"><g data-paper-data="{&quot;isPaintingLayer&quot;:true}" fill-rule="nonzero" stroke-linejoin="miter" stroke-miterlimit="10" stroke-dasharray="" stroke-dashoffset="0" style="mix-blend-mode: normal"><g stroke="none" stroke-width="0" stroke-linecap="butt"><path d="M267.8806,179.44805l22.70349,-22.55108l9.8661,9.93278l-22.70349,22.55108z" fill="#c68322"/><path d="M284.23684,151.92582l7.80432,-7.75194l21.84636,21.99401l-7.80432,7.75194z" fill="#c68322"/><path d="M297.05277,152.05737l76.62429,-76.10992l8.28048,8.33644l-76.62429,76.10992z" fill="#62a8d0"/><path d="M374.54446,75.36026l10.97936,-2.64137l-1.60052,10.74751l-10.97936,2.64137z" fill="#62a8d0"/></g><path d="M214.5,128c0,-14.91169 12.08831,-27 27,-27c14.91169,0 27,12.08831 27,27c0,14.91169 -12.08831,27 -27,27c-14.91169,0 -27,-12.08831 -27,-27z" fill="#000000" stroke="#000000" stroke-width="1" stroke-linecap="butt"/><path d="M241,151l-1,91" fill="none" stroke="#000000" stroke-width="15" stroke-linecap="round"/><path d="M285.16384,183.8376c0,0 -23.99458,1.076 -32.29266,-4.51486c-11.38653,-10.75606 -18.51436,-22.16033 -18.51436,-22.16033" fill="none" stroke="#000000" stroke-width="15" stroke-linecap="round"/><path d="M282.75321,182.71512c0,0 -12.7177,0.63103 -20.70954,-4.54827c-10.17989,-6.59733 -20.66769,-19.88196 -20.66769,-19.88196" fill="none" stroke="#000000" stroke-width="15" stroke-linecap="round"/><path d="M241.22132,244.65654c0,0 11.23789,18.76722 12.94741,30.98893c4.15939,10.04509 1.73913,39.698 1.73913,39.698" fill="none" stroke="#000000" stroke-width="15" stroke-linecap="round"/><path d="M241.58021,245.20586c0,0 -2.97546,19.36487 -10.89067,34.71051c-2.94785,11.18364 -14.14057,30.87777 -14.14057,30.87777" fill="none" stroke="#000000" stroke-width="15" stroke-linecap="round"/><g stroke-width="5"><path d="M213.18055,129.15893c0,0 -12.7818,-13.82031 -9.28253,-22.89731c3.49928,-9.07703 15.38376,-10.21452 23.37479,-13.65755c8.2421,-3.55123 16.00345,-11.5344 25.34788,-7.33516c9.34443,4.19917 9.28254,22.8973 9.28254,22.8973c0,0 -15.41923,9.63208 -23.58107,13.14874c-8.07814,3.48059 -25.14157,7.84401 -25.14157,7.84401z" fill="#9f5500" stroke="none" stroke-linecap="butt"/><path d="M259.77756,107.28895l-21.27588,11.55771l-26.55878,7.25919" data-paper-data="{&quot;index&quot;:null}" fill="none" stroke="#dac1a2" stroke-linecap="round"/></g></g></g></svg>