<svg version="1.1" xmlns="http://www.w3.org/2000/svg" xmlns:xlink="http://www.w3.org/1999/xlink" width="67.5" height="104" viewBox="0,0,67.5,104"><g transform="translate(-206.25,-128)"><g data-paper-data="{&quot;isPaintingLayer&quot;:true}" fill-rule="nonzero" stroke-linejoin="miter" stroke-miterlimit="10" stroke-dasharray="" stroke-dashoffset="0" style="mix-blend-mode: normal"><path d="M208.25,164.5v-18.5h65.5v18.5z" data-paper-data="{&quot;index&quot;:null}" fill="#4a678c" stroke="none" stroke-width="0" stroke-linecap="butt"></path><path d="M206.25,164.5v-36h15v36z" data-paper-data="{&quot;index&quot;:null}" fill="#4a678c" stroke="none" stroke-width="0" stroke-linecap="butt"></path><path d="M258.75,164.5v-36h15v36z" data-paper-data="{&quot;index&quot;:null}" fill="#4a678c" stroke="none" stroke-width="0" stroke-linecap="butt"></path><path d="M232.25,164v-36h15v36z" data-paper-data="{&quot;index&quot;:null}" fill="#4a678c" stroke="none" stroke-width="0" stroke-linecap="butt"></path><path d="M217.04771,232v-74.5h47.20229v74.5z" data-paper-data="{&quot;index&quot;:null}" fill="#4a678c" stroke="none" stroke-width="0" stroke-linecap="butt"></path><path d="M233.25,183v-17.5h14v17.5z" data-paper-data="{&quot;index&quot;:null}" fill="#000000" stroke="none" stroke-width="0" stroke-linecap="butt"></path><path d="M206.5,164l-0.25,-4.5c0,0 21.03704,2.34359 34.50181,2.24348c12.7804,-0.09502 32.74819,-2.74348 32.74819,-2.74348v5z" data-paper-data="{&quot;index&quot;:null}" fill="#253345" stroke="none" stroke-width="0" stroke-linecap="butt"></path><path d="M232.75,203.5v-21h15v21l-8.33333,7z" data-paper-data="{&quot;index&quot;:null}" fill="#66a8ff" stroke="none" stroke-width="0" stroke-linecap="butt"></path><path d="M217.5254,191.0848l3.8644,-4.0678l4.0678,3.8644l5.8983,-2.4407" data-paper-data="{&quot;index&quot;:null}" fill="none" stroke="#253345" stroke-width="2" stroke-linecap="round"></path><path d="M223.4237,188.8475l2.6441,-5.4916l4.678,-2.0339" data-paper-data="{&quot;index&quot;:null}" fill="none" stroke="#253345" stroke-width="2" stroke-linecap="round"></path><path d="M224.6441,198.6102l-3.6611,-4.8814l0.4068,-5.6949" data-paper-data="{&quot;index&quot;:null}" fill="none" stroke="#253345" stroke-width="2" stroke-linecap="round"></path><path d="M218.9492,179.6949h4.4745l2.4407,4.2712" data-paper-data="{&quot;index&quot;:null}" fill="none" stroke="#253345" stroke-width="2" stroke-linecap="round"></path><path d="M263.4915,215.0848l-5.4915,2.8474l-1.6271,-4.4746h-5.2882" data-paper-data="{&quot;index&quot;:null}" fill="none" stroke="#253345" stroke-width="2" stroke-linecap="round"></path><path d="M251.2881,224.6441l1.017,-6.1017l3.661,-4.2712" data-paper-data="{&quot;index&quot;:null}" fill="none" stroke="#253345" stroke-width="2" stroke-linecap="round"></path><path d="M261.2542,202.678v7.7288l-3.0508,6.7118" data-paper-data="{&quot;index&quot;:null}" fill="none" stroke="#253345" stroke-width="2" stroke-linecap="round"></path><path d="M253.7288,207.9661l1.8305,5.0847" data-paper-data="{&quot;index&quot;:null}" fill="none" stroke="#253345" stroke-width="2" stroke-linecap="round"></path><path d="M260.6441,210.8136l-3.2543,-4.4746l0.8136,-9.7627" data-paper-data="{&quot;index&quot;:null}" fill="none" stroke="#253345" stroke-width="2" stroke-linecap="round"></path></g></g></svg>