<svg version="1.1" xmlns="http://www.w3.org/2000/svg" xmlns:xlink="http://www.w3.org/1999/xlink" width="69.84128" height="113.61541" viewBox="0,0,69.84128,113.61541"><g transform="translate(-205.50465,-118.38462)"><g data-paper-data="{&quot;isPaintingLayer&quot;:true}" fill-rule="nonzero" stroke-linejoin="miter" stroke-miterlimit="10" stroke-dasharray="" stroke-dashoffset="0" style="mix-blend-mode: normal"><path d="M257.86589,157.25372l-11.07919,-34.25276l14.27198,-4.61633l11.07919,34.25276z" data-paper-data="{&quot;index&quot;:null}" fill="#8c4a4a" stroke="none" stroke-width="0" stroke-linecap="butt"></path><path d="M218.17488,232.00004v-74.5h47.20229v74.5z" data-paper-data="{&quot;index&quot;:null}" fill="#8c4a4a" stroke="none" stroke-width="0" stroke-linecap="butt"></path><path d="M234.37718,183.00004v-17.5h14v17.5z" data-paper-data="{&quot;index&quot;:null}" fill="#000000" stroke="none" stroke-width="0" stroke-linecap="butt"></path><path d="M211.68877,178.81667l-6.18412,-17.43579c0,0 4.23434,-2.04364 7.58871,-3.23337c9.72605,-3.44963 56.06845,-19.34455 56.06845,-19.34455l6.18412,17.43579z" data-paper-data="{&quot;index&quot;:null}" fill="#8c4a4a" stroke="none" stroke-width="0" stroke-linecap="butt"></path><path d="M212.46785,178.98758l-1.82892,-4.11917c0,0 20.50174,-5.26578 33.05667,-10.13237c11.91681,-4.61923 29.64915,-14.17387 29.64915,-14.17387l1.77239,4.67532z" data-paper-data="{&quot;index&quot;:null}" fill="#452525" stroke="none" stroke-width="0" stroke-linecap="butt"></path><path d="M218.65265,191.08482l3.8644,-4.0678l4.0678,3.8644l5.8983,-2.4407" data-paper-data="{&quot;index&quot;:null}" fill="none" stroke="#452525" stroke-width="2" stroke-linecap="round"></path><path d="M224.55095,188.84752l2.644,-5.4916l4.678,-2.0339" data-paper-data="{&quot;index&quot;:null}" fill="none" stroke="#452525" stroke-width="2" stroke-linecap="round"></path><path d="M222.51705,188.03391l-0.4068,5.6949l3.661,4.8814l-1.9037,3.0508l-3.4576,2.4407" data-paper-data="{&quot;index&quot;:null}" fill="none" stroke="#452525" stroke-width="2" stroke-linecap="round"></path><path d="M220.07635,179.69491h4.4746l2.4406,4.2712" data-paper-data="{&quot;index&quot;:null}" fill="none" stroke="#452525" stroke-width="2" stroke-linecap="round"></path><path d="M238.91835,214.47462l-5.8983,1.4237l-3.5308,-2.4407h-5.2882l-1.6271,4.4746l-5.4915,-2.8474" data-paper-data="{&quot;index&quot;:null}" fill="none" stroke="#452525" stroke-width="2" stroke-linecap="round"></path><path d="M224.60785,214.27122l3.6611,4.2712l1.0169,6.1017" data-paper-data="{&quot;index&quot;:null}" fill="none" stroke="#452525" stroke-width="2" stroke-linecap="round"></path><path d="M262.38145,202.67802v7.7288l-3.0509,6.7118" data-paper-data="{&quot;index&quot;:null}" fill="none" stroke="#452525" stroke-width="2" stroke-linecap="round"></path><path d="M226.84515,207.96612l-1.8305,5.0848" data-paper-data="{&quot;index&quot;:null}" fill="none" stroke="#452525" stroke-width="2" stroke-linecap="round"></path><path d="M261.77125,210.81362l-3.2542,-4.4746l0.8135,-9.7627" data-paper-data="{&quot;index&quot;:null}" fill="none" stroke="#452525" stroke-width="2" stroke-linecap="round"></path><path d="M257.42775,153.28161l7.0637,-2.2344l6.209,3.7577" data-paper-data="{&quot;index&quot;:null}" fill="none" stroke="#452525" stroke-width="2" stroke-linecap="round"></path><path d="M261.98435,150.8528l-3.4613,-3.6486l2.3447,-4.0824" data-paper-data="{&quot;index&quot;:null}" fill="none" stroke="#452525" stroke-width="2" stroke-linecap="round"></path><path d="M260.16005,152.58342l-1.6927,4.3931l-6.2327,-0.7693" data-paper-data="{&quot;index&quot;:null}" fill="none" stroke="#452525" stroke-width="2" stroke-linecap="round"></path><path d="M267.13895,141.32642l2.1337,6.0158l-3.8738,4.3539" data-paper-data="{&quot;index&quot;:null}" fill="none" stroke="#452525" stroke-width="2" stroke-linecap="round"></path><path d="M258.52305,147.20421l-5.0378,2.5995" data-paper-data="{&quot;index&quot;:null}" fill="none" stroke="#452525" stroke-width="2" stroke-linecap="round"></path><path d="M230.3336,166.45495l-8.31444,-25.75502l11.52926,-13.11226l11.05978,34.25903z" data-paper-data="{&quot;index&quot;:null}" fill="#8c4a4a" stroke="none" stroke-width="0" stroke-linecap="butt"></path><path d="M232.81665,216.91532l2.6441,4.0678" data-paper-data="{&quot;index&quot;:null}" fill="none" stroke="#452525" stroke-width="2" stroke-linecap="round"></path><path d="M230.57935,203.69491l2.2373,6.9153l-3.2542,3.4576" data-paper-data="{&quot;index&quot;:null}" fill="none" stroke="#452525" stroke-width="2" stroke-linecap="round"></path><path d="M223.25735,194.74582h5.8983l4.0678,3.661" data-paper-data="{&quot;index&quot;:null}" fill="none" stroke="#452525" stroke-width="2" stroke-linecap="round"></path><path d="M242.46248,210.50002l-8.33333,-7v-21h15v21z" data-paper-data="{&quot;index&quot;:null}" fill="#ff0000" stroke="none" stroke-width="0" stroke-linecap="butt"></path></g></g></svg>