<svg version="1.1" xmlns="http://www.w3.org/2000/svg" xmlns:xlink="http://www.w3.org/1999/xlink" width="614" height="464.82102" viewBox="0,0,614,464.82102"><defs><linearGradient x1="235.4955" y1="-26.885" x2="235.4955" y2="437.93604" gradientUnits="userSpaceOnUse" id="color-1"><stop offset="0" stop-color="#c1fffd"/><stop offset="1" stop-color="#e7fcff"/></linearGradient></defs><g transform="translate(71.5045,26.88498)"><g data-paper-data="{&quot;isPaintingLayer&quot;:true}" fill-rule="nonzero" stroke-linejoin="miter" stroke-miterlimit="10" stroke-dasharray="" stroke-dashoffset="0" style="mix-blend-mode: normal"><path d="M-71.5045,437.93604v-464.82102h614v464.82102z" fill="url(#color-1)" stroke="none" stroke-width="0" stroke-linecap="butt"/><path d="M162.9955,284.78741c0,0 156.63843,-155.30435 217.10076,-125.54439c60.46233,29.75996 113.89924,137.89302 113.89924,137.89302z" data-paper-data="{&quot;index&quot;:null}" fill="#00c50a" stroke="none" stroke-width="0" stroke-linecap="butt"/><path d="M356.3656,160.51802c0.949,0.5423 2.2565,0.7285 2.9893,1.4855c0.1118,0.1155 0.2102,0.2442 0.2919,0.3895c2.3735,4.2195 -2.8215,10.9167 -5.161,13.7051c-6.4441,7.6806 -17.6775,6.9575 -25.2312,13.3341c-7.7723,6.5613 -8.7283,19.353 -16.3691,25.9022c-3.6197,3.1026 -5.2187,2.9444 -9.1554,4.9127c-1.3038,0.6519 -4.6595,3.3492 -6.3242,2.7943c-3.3541,-1.1181 -4.0528,-2.5156 -2.9348,-5.8697c0.7266,-2.1797 8.7526,-4.3344 10.9061,-5.1608c2.3171,-0.8892 6.9561,-9.1685 8.1564,-11.4642c4.1833,-8.0011 8.109,-14.7605 15.7394,-19.9569c5.5681,-3.7921 13.0121,-3.8668 18.1006,-7.9692c1.7358,-1.3995 3.8271,-3.9966 4.5596,-6.1231c0.2291,-0.6651 0.8397,-3.9265 1.2005,-4.1327z" fill="#94704c" stroke="none" stroke-width="0.5" stroke-linecap="butt"/><path d="M-30.0045,314.13602c0,0 81.52761,-90.57928 173.77376,-115.50816c92.24615,-24.92888 331.22624,105.16414 331.22624,105.16414z" fill="#00ff0d" stroke="none" stroke-width="0" stroke-linecap="butt"/><path d="M150.79198,163.85609l-4.66667,-9.07212h32.12019v9.07212z" fill="#8e8e8e" stroke="none" stroke-width="0" stroke-linecap="butt"/><path d="M153.81121,167.18943l-9,-16.32051l7.6891,-4.66667v17.65385z" fill="#8e8e8e" stroke="none" stroke-width="0" stroke-linecap="butt"/><path d="M170.88973,163.85609l1,-11.98718l5.35577,2.33333l1,9.65385z" fill="#8e8e8e" stroke="none" stroke-width="0" stroke-linecap="butt"/><path d="M157.89453,163.61091l2.66667,-9.65385l6.02244,-2.66667l-1.33333,12.32052z" fill="#8e8e8e" stroke="none" stroke-width="0" stroke-linecap="butt"/><path d="M156.9629,196.70032c3.9438,-3.9096 9.4061,-2.3549 9.4061,3.2205c0,1.0369 -1.0329,4.2705 -2.0956,7.2169c1.578,5.1868 -0.576,11.4004 -0.2689,16.9775c0.3341,6.0658 5.231,13.1133 11.1488,14.8417c7.9825,2.3316 16.5685,5.0886 25.0047,7.0241c10.7259,2.4609 20.6077,2.661 29.4333,10.0457c4.8881,4.0901 9.9726,11.8694 12.3464,17.6977c1.176,2.8873 5.3646,4.2408 6.2056,7.2399c0.0138,0.0489 0.027,0.0976 0.0396,0.1462c1.2347,1.2888 2.38,2.6376 3.1545,3.9087c0.7067,1.1597 2.158,3.0815 1.6983,4.4607c-1.4907,4.4721 -3.3541,5.4038 -7.8263,3.9131c-1.2346,-0.4116 -1.2718,-2.4051 -2.3709,-3.1021c-2.7118,-1.7195 -5.5181,-4.3316 -6.5405,-7.3987l-0.0634,-0.3656c-0.2712,-0.3557 -0.5059,-0.6616 -0.6885,-0.8844c-4.6729,-5.7 -8.826,-17.2632 -15.6861,-20.3903c-12.7261,-5.8011 -27.3228,-5.0418 -40.2162,-10.8084c-5.9989,-2.6831 -13.087,-2.8695 -17.8415,-8.3743c-3.7709,-4.366 -7.7386,-11.3066 -7.7978,-17.2022c-0.045,-4.4877 -0.1243,-8.9774 -0.0765,-13.4649c-0.1656,-0.4819 -0.2365,-1.0443 -0.1865,-1.6947c-0.0462,-0.2733 -0.0703,-0.554 -0.0703,-0.8404c0,-0.5325 0.0832,-1.0456 0.2374,-1.5269c0.4792,-3.1824 1.378,-8.978 3.0543,-10.6397z" fill="#ac8258" stroke="none" stroke-width="0.5" stroke-linecap="butt"/><path d="M150.43956,196.95706c0,0 -0.47559,-6.93923 0.51144,-12.49559c0.47252,-2.66 4.82189,-5.65876 4.82189,-5.65876l-4.80244,-6.39483l-0.5309,-11.98447h23.14728v36.53365z" fill="#8e8e8e" stroke="none" stroke-width="0" stroke-linecap="butt"/><path d="M158.38492,172.92821v-8.58173h6.86538v8.58173z" fill="#000000" stroke="none" stroke-width="0" stroke-linecap="butt"/><path d="M162.48267,202.90148l-7.04394,-7.51221l5.36586,-5.03139l7.04394,7.51221l-0.63306,5.29928z" fill="#66a8ff" stroke="none" stroke-width="0" stroke-linecap="butt"/><path d="M346.03617,132.94742l-0.33333,-4.73597l26.54266,-2.66667v7.40264z" fill="#8e8e8e" stroke="none" stroke-width="0" stroke-linecap="butt"/><path d="M366.24336,132.94742l-1,-9.40513l7.33547,0.66667l-0.33333,8.73846z" fill="#8e8e8e" stroke="none" stroke-width="0" stroke-linecap="butt"/><path d="M355.63959,132.74733v-8.40513l5.66881,-3.33333l0.33333,11.73846z" fill="#8e8e8e" stroke="none" stroke-width="0" stroke-linecap="butt"/><path d="M349.55651,159.95706l4.66667,-7.48768l-3.64699,-12.41423l-1.01968,-9.9087h18.88764v29.81061z" fill="#8e8e8e" stroke="none" stroke-width="0" stroke-linecap="butt"/><path d="M356.03973,140.35008v-7.00249h5.60199v7.00249z" fill="#000000" stroke="none" stroke-width="0" stroke-linecap="butt"/><path d="M200.6622,206.80272l-5,11" fill="none" stroke="#705539" stroke-width="2.5" stroke-linecap="round"/><path d="M200.7067,216.59762l-4.5939,-17.8846l8.5965,-2.2082l4.5939,17.8847l-3.3805,5.2922z" fill="#ac8258" stroke="#7c5e3f" stroke-width="2.5" stroke-linecap="butt"/><path d="M210.3734,213.93092l-4.594,-17.8846c0,0 -0.0903,-1.2958 0.7915,-0.0869c1.4541,1.9938 7.1116,10.9222 7.1116,10.9222c0,0 0.1408,-10.315 0.231,-12.0124c0.1277,-2.4013 0.4624,-1.031 0.4624,-1.031l4.594,17.8846l-3.3805,5.2922z" fill="#ac8258" stroke="#7c5e3f" stroke-width="2.5" stroke-linecap="butt"/><path d="M219.3734,210.93092l-4.594,-17.8846l8.5965,-2.2082l-1.0046,10.3635l4.5964,1.7069l1.0022,5.8143l-3.3805,5.2922z" fill="#ac8258" stroke="#7c5e3f" stroke-width="2.5" stroke-linecap="butt"/><path d="M161.6622,179.80272l4.6666,2l4.3334,-3.6667l2.3333,3" fill="none" stroke="#727272" stroke-width="1.5" stroke-linecap="round"/><path d="M168.6622,179.80272l-3.6667,-3.3333l3,-4" fill="none" stroke="#727272" stroke-width="1.5" stroke-linecap="round"/><path d="M165.9955,181.80272l-1.3333,5" fill="none" stroke="#727272" stroke-width="1.5" stroke-linecap="round"/><path d="M358.3288,151.46932l4,-0.3333l2.3334,-2.6667l3,2.6667" fill="none" stroke="#727272" stroke-width="1.5" stroke-linecap="round"/><path d="M362.3288,151.46932l-1,3.6667" fill="none" stroke="#727272" stroke-width="1.5" stroke-linecap="round"/><path d="M363.9955,149.13602l-1,-3l2,-3" fill="none" stroke="#727272" stroke-width="1.5" stroke-linecap="round"/><path d="M-3.46757,360.85668v-71.08333h498.66667v71.08333z" fill="#31a719" stroke="none" stroke-width="0" stroke-linecap="butt"/><path d="M357.25301,164.87096l-3.44747,-7.66324l5.47374,-2.46248l3.44747,7.66324l-1.89181,3.92246z" fill="#ff0000" stroke="none" stroke-width="0" stroke-linecap="butt"/></g></g></svg>