<svg version="1.1" xmlns="http://www.w3.org/2000/svg" xmlns:xlink="http://www.w3.org/1999/xlink" width="69.84128" height="113.6154" viewBox="0,0,69.84128,113.6154"><g transform="translate(-205.50465,-118.3846)"><g data-paper-data="{&quot;isPaintingLayer&quot;:true}" fill-rule="nonzero" stroke-linejoin="miter" stroke-miterlimit="10" stroke-dasharray="" stroke-dashoffset="0" style="mix-blend-mode: normal"><path d="M208.71271,152.63736l11.07919,-34.25276l14.27198,4.61633l-11.07919,34.25276z" data-paper-data="{&quot;index&quot;:null}" fill="#4a678c" stroke="none" stroke-width="0" stroke-linecap="butt"></path><path d="M215.47341,232.00001v-74.5h47.20229v74.5z" data-paper-data="{&quot;index&quot;:null}" fill="#4a678c" stroke="none" stroke-width="0" stroke-linecap="butt"></path><path d="M232.4734,183.00001v-17.5h14v17.5z" data-paper-data="{&quot;index&quot;:null}" fill="#000000" stroke="none" stroke-width="0" stroke-linecap="butt"></path><path d="M205.50465,156.23872l6.18412,-17.43579c0,0 46.3424,15.89492 56.06845,19.34455c3.35437,1.18973 7.58871,3.23337 7.58871,3.23337l-6.18412,17.43579z" data-paper-data="{&quot;index&quot;:null}" fill="#4a678c" stroke="none" stroke-width="0" stroke-linecap="butt"></path><path d="M205.73344,155.23746l1.77239,-4.67532c0,0 17.73234,9.55464 29.64915,14.17387c12.55493,4.86659 33.05667,10.13237 33.05667,10.13237l-1.82892,4.11917z" data-paper-data="{&quot;index&quot;:null}" fill="#253345" stroke="none" stroke-width="0" stroke-linecap="butt"></path><path d="M240.30673,210.50001l-8.33333,-7v-21h15v21z" data-paper-data="{&quot;index&quot;:null}" fill="#66a8ff" stroke="none" stroke-width="0" stroke-linecap="butt"></path><path d="M248.36745,188.44071l5.8983,2.4407l4.0678,-3.8644l3.8644,4.0677" data-paper-data="{&quot;index&quot;:null}" fill="none" stroke="#253345" stroke-width="2" stroke-linecap="round"></path><path d="M248.97765,181.32201l4.6779,2.0339l2.6441,5.4916" data-paper-data="{&quot;index&quot;:null}" fill="none" stroke="#253345" stroke-width="2" stroke-linecap="round"></path><path d="M260.44065,204.10171l-3.4576,-2.4407l-1.9037,-3.0508l3.661,-4.8814l-0.4068,-5.6949" data-paper-data="{&quot;index&quot;:null}" fill="none" stroke="#253345" stroke-width="2" stroke-linecap="round"></path><path d="M253.85895,183.96611l2.4407,-4.2712h4.4746" data-paper-data="{&quot;index&quot;:null}" fill="none" stroke="#253345" stroke-width="2" stroke-linecap="round"></path><path d="M263.76815,215.08481l-5.4916,2.8474l-1.6271,-4.4746h-5.2881l-3.5308,2.4407l-5.8984,-1.4237" data-paper-data="{&quot;index&quot;:null}" fill="none" stroke="#253345" stroke-width="2" stroke-linecap="round"></path><path d="M251.56475,224.64411l1.0169,-6.1017l3.6611,-4.2712" data-paper-data="{&quot;index&quot;:null}" fill="none" stroke="#253345" stroke-width="2" stroke-linecap="round"></path><path d="M221.52005,217.11861l-3.0509,-6.7118v-7.7288" data-paper-data="{&quot;index&quot;:null}" fill="none" stroke="#253345" stroke-width="2" stroke-linecap="round"></path><path d="M254.00545,207.96611l1.8305,5.0847" data-paper-data="{&quot;index&quot;:null}" fill="none" stroke="#253345" stroke-width="2" stroke-linecap="round"></path><path d="M221.52005,196.57631l0.8135,9.7627l-3.2542,4.4746" data-paper-data="{&quot;index&quot;:null}" fill="none" stroke="#253345" stroke-width="2" stroke-linecap="round"></path><path d="M210.15015,154.8048l6.209,-3.7576l7.0637,2.2344" data-paper-data="{&quot;index&quot;:null}" fill="none" stroke="#253345" stroke-width="2" stroke-linecap="round"></path><path d="M219.98285,143.12181l2.3447,4.0824l-3.4613,3.6486" data-paper-data="{&quot;index&quot;:null}" fill="none" stroke="#253345" stroke-width="2" stroke-linecap="round"></path><path d="M228.61595,156.2072l-6.2327,0.7693l-1.6927,-4.3931" data-paper-data="{&quot;index&quot;:null}" fill="none" stroke="#253345" stroke-width="2" stroke-linecap="round"></path><path d="M215.45175,151.6961l-3.8738,-4.3539l2.1337,-6.0158" data-paper-data="{&quot;index&quot;:null}" fill="none" stroke="#253345" stroke-width="2" stroke-linecap="round"></path><path d="M222.32755,147.20421l5.0378,2.5995" data-paper-data="{&quot;index&quot;:null}" fill="none" stroke="#253345" stroke-width="2" stroke-linecap="round"></path><path d="M236.24238,161.84669l11.05978,-34.25903l11.52926,13.11226l-8.31444,25.75502z" data-paper-data="{&quot;index&quot;:null}" fill="#4a678c" stroke="none" stroke-width="0" stroke-linecap="butt"></path><path d="M245.38985,220.98301l2.644,-4.0678" fill="none" stroke="#253345" stroke-width="2" stroke-linecap="round"></path><path d="M251.28815,214.06781l-3.2543,-3.4576l2.2373,-6.9153" fill="none" stroke="#253345" stroke-width="2" stroke-linecap="round"></path><path d="M247.62715,198.40681l4.0678,-3.661h5.8983" fill="none" stroke="#253345" stroke-width="2" stroke-linecap="round"></path></g></g></svg>