<svg version="1.1" xmlns="http://www.w3.org/2000/svg" xmlns:xlink="http://www.w3.org/1999/xlink" width="125.36402" height="245.4698" viewBox="0,0,125.36402,245.4698"><g transform="translate(-189.56758,-67.82434)"><g data-paper-data="{&quot;isPaintingLayer&quot;:true}" fill-rule="nonzero" stroke-linejoin="miter" stroke-miterlimit="10" stroke-dasharray="" stroke-dashoffset="0" style="mix-blend-mode: normal"><g stroke="none" stroke-width="0" stroke-linecap="butt"><path d="M257.21515,217.16769l9.52862,-30.54841l13.36493,4.16877l-9.52862,30.54841z" fill="#c68322"/><path d="M258.8089,185.19176l3.27546,-10.50102l29.59377,9.23085l-3.27546,10.50102z" fill="#c68322"/><path d="M270.19989,179.31717l32.15909,-103.10089l11.21699,3.49879l-32.15909,103.10089z" fill="#62a8d0"/><path d="M302.85129,75.29172l8.47121,-7.46738l3.6091,10.24914l-8.47121,7.46738z" fill="#62a8d0"/></g><path d="M214.5,128c0,-14.91169 12.08831,-27 27,-27c14.91169,0 27,12.08831 27,27c0,14.91169 -12.08831,27 -27,27c-14.91169,0 -27,-12.08831 -27,-27z" fill="#000000" stroke="#000000" stroke-width="1" stroke-linecap="butt"/><path d="M240,242l1,-91" fill="none" stroke="#000000" stroke-width="15" stroke-linecap="round"/><path d="M270.75321,212.71512l-29.37723,-54.43023" fill="none" stroke="#000000" stroke-width="15" stroke-linecap="round"/><path d="M239.22132,244.65654c0,0 -3.76211,20.76722 -8.05259,31.98893c-3.84061,10.04509 -14.26087,25.698 -14.26087,25.698" fill="none" stroke="#000000" stroke-width="15" stroke-linecap="round"/><path d="M241.58021,246.20586c0,0 13.02454,17.36487 15.10933,27.71051c2.05215,10.18364 0.85943,31.87777 0.85943,31.87777" fill="none" stroke="#000000" stroke-width="15" stroke-linecap="round"/><path d="M229.16384,207.8376c0,0 -11.99458,-12.924 -10.29266,-24.51486c1.61347,-12.75606 19.48564,-25.16033 19.48564,-25.16033" fill="none" stroke="#000000" stroke-width="15" stroke-linecap="round"/><g data-paper-data="{&quot;index&quot;:null}" stroke="#afafaf" stroke-width="10"><path d="M221.96771,157.56386c19.20301,-2.50891 38.0695,20.71427 42.13957,51.87003c4.07052,31.15576 -8.19712,58.44592 -27.40013,60.95439c-19.20257,2.50891 -38.0695,-20.71427 -42.13957,-51.87003c-4.07007,-31.15576 8.19712,-58.44592 27.40013,-60.95439z" fill="#c5ffff" stroke-linecap="butt"/><path d="M229.195,196.31303c6.46636,-0.84484 12.68365,5.93641 13.88709,15.14574c1.203,9.20934 -3.0636,17.36008 -9.52996,18.20492c-6.46636,0.84484 -12.68365,-5.93641 -13.88665,-15.14574c-1.20345,-9.20934 3.06315,-17.36008 9.52952,-18.20492z" fill="#c5ffff" stroke-linecap="butt"/><path d="M229.9047,196.22028l-12.84175,-34.7683" fill="none" stroke-linecap="round"/><path d="M233.87674,232.14743l-0.34801,33.24379" fill="none" stroke-linecap="round"/><path d="M216.11742,214.98166l-16.08863,3.90579" fill="none" stroke-linecap="round"/><path d="M261.14437,203.32569l-17.50803,4.09127" fill="none" stroke-linecap="round"/></g></g></g></svg>