<svg version="1.1" xmlns="http://www.w3.org/2000/svg" xmlns:xlink="http://www.w3.org/1999/xlink" width="176.47486" height="250.12457" viewBox="0,0,176.47486,250.12457"><g transform="translate(-209.04897,-72.7189)"><g data-paper-data="{&quot;isPaintingLayer&quot;:true}" fill-rule="nonzero" stroke-linejoin="miter" stroke-miterlimit="10" stroke-dasharray="" stroke-dashoffset="0" style="mix-blend-mode: normal"><g stroke="none" stroke-width="0" stroke-linecap="butt"><path d="M267.8806,179.44805l22.70349,-22.55108l9.8661,9.93278l-22.70349,22.55108z" fill="#c68322"/><path d="M284.23684,151.92582l7.80432,-7.75194l21.84636,21.99401l-7.80432,7.75194z" fill="#c68322"/><path d="M297.05277,152.05737l76.62429,-76.10992l8.28048,8.33644l-76.62429,76.10992z" fill="#62a8d0"/><path d="M374.54446,75.36026l10.97936,-2.64137l-1.60052,10.74751l-10.97936,2.64137z" fill="#62a8d0"/></g><path d="M214.5,128c0,-14.91169 12.08831,-27 27,-27c14.91169,0 27,12.08831 27,27c0,14.91169 -12.08831,27 -27,27c-14.91169,0 -27,-12.08831 -27,-27z" fill="#000000" stroke="#000000" stroke-width="1" stroke-linecap="butt"/><path d="M241,151l-1,91" fill="none" stroke="#000000" stroke-width="15" stroke-linecap="round"/><path d="M285.16384,183.8376c0,0 -23.99458,1.076 -32.29266,-4.51486c-11.38653,-10.75606 -18.51436,-22.16033 -18.51436,-22.16033" fill="none" stroke="#000000" stroke-width="15" stroke-linecap="round"/><path d="M282.75321,182.71512c0,0 -12.7177,0.63103 -20.70954,-4.54827c-10.17989,-6.59733 -20.66769,-19.88196 -20.66769,-19.88196" fill="none" stroke="#000000" stroke-width="15" stroke-linecap="round"/><path d="M241.22132,244.65654c0,0 11.23789,18.76722 12.94741,30.98893c4.15939,10.04509 1.73913,39.698 1.73913,39.698" fill="none" stroke="#000000" stroke-width="15" stroke-linecap="round"/><path d="M241.58021,245.20586c0,0 -2.97546,19.36487 -10.89067,34.71051c-2.94785,11.18364 -14.14057,30.87777 -14.14057,30.87777" fill="none" stroke="#000000" stroke-width="15" stroke-linecap="round"/></g></g></svg>