<svg version="1.1" xmlns="http://www.w3.org/2000/svg" xmlns:xlink="http://www.w3.org/1999/xlink" width="225.81735" height="238.76515" viewBox="0,0,225.81735,238.76515"><g transform="translate(-203.29139,-84.07833)"><g data-paper-data="{&quot;isPaintingLayer&quot;:true}" fill-rule="nonzero" stroke-linejoin="miter" stroke-miterlimit="10" stroke-dasharray="" stroke-dashoffset="0" style="mix-blend-mode: normal"><g stroke="none" stroke-width="0" stroke-linecap="butt"><path d="M278.31873,194.47613l29.89172,-11.42299l4.99756,13.07763l-29.89172,11.42299z" fill="#c68322"/><path d="M304.42059,175.93718l10.27528,-3.92666l11.06602,28.95761l-10.27528,3.92666z" fill="#c68322"/><path d="M316.08497,181.24827l100.88457,-38.55262l4.19438,10.97587l-100.88457,38.55262z" fill="#62a8d0"/><path d="M418.00044,142.51009l11.1083,2.03193l-5.81641,9.17824l-11.1083,-2.03193z" fill="#62a8d0"/></g><path d="M214.5,128c0,-14.91169 12.08831,-27 27,-27c14.91169,0 27,12.08831 27,27c0,14.91169 -12.08831,27 -27,27c-14.91169,0 -27,-12.08831 -27,-27z" fill="#000000" stroke="#000000" stroke-width="1" stroke-linecap="butt"/><path d="M241,151l-1,91" fill="none" stroke="#000000" stroke-width="15" stroke-linecap="round"/><path d="M281.16384,202.83762c0,0 -23.99458,-8.924 -31.29266,-21.51486c-10.38653,-9.75606 -9.51436,-24.16033 -9.51436,-24.16033" fill="none" stroke="#000000" stroke-width="15" stroke-linecap="round"/><path d="M282.75321,202.71513c0,0 -33.7177,-3.36897 -38.70954,-15.54827c-10.17989,-6.59733 -2.66769,-28.88196 -2.66769,-28.88196" fill="none" stroke="#000000" stroke-width="15" stroke-linecap="round"/><path d="M241.22132,244.65656c0,0 11.23789,18.76722 12.94741,30.98893c4.15939,10.04509 1.73913,39.698 1.73913,39.698" fill="none" stroke="#000000" stroke-width="15" stroke-linecap="round"/><path d="M241.58021,245.20588c0,0 -2.97546,19.36487 -10.89067,34.71051c-2.94785,11.18364 -14.14057,30.87777 -14.14057,30.87777" fill="none" stroke="#000000" stroke-width="15" stroke-linecap="round"/><g stroke-width="5"><path d="M213.18055,129.15893c0,0 -12.7818,-13.82031 -9.28253,-22.89731c3.49928,-9.07703 15.38376,-10.21452 23.37479,-13.65755c8.2421,-3.55123 16.00345,-11.5344 25.34788,-7.33516c9.34443,4.19917 9.28254,22.8973 9.28254,22.8973c0,0 -15.41923,9.63208 -23.58107,13.14874c-8.07814,3.48059 -25.14157,7.84401 -25.14157,7.84401z" fill="#9f5500" stroke="none" stroke-linecap="butt"/><path d="M259.77756,107.28895l-21.27588,11.55771l-26.55878,7.25919" data-paper-data="{&quot;index&quot;:null}" fill="none" stroke="#dac1a2" stroke-linecap="round"/></g></g></g></svg>