<svg version="1.1" xmlns="http://www.w3.org/2000/svg" xmlns:xlink="http://www.w3.org/1999/xlink" width="220.05977" height="222.34347" viewBox="0,0,220.05977,222.34347"><g transform="translate(-209.04897,-100.5)"><g data-paper-data="{&quot;isPaintingLayer&quot;:true}" fill-rule="nonzero" stroke-linejoin="miter" stroke-miterlimit="10" stroke-dasharray="" stroke-dashoffset="0" style="mix-blend-mode: normal"><g stroke="none" stroke-width="0" stroke-linecap="butt"><path d="M278.31873,194.47612l29.89172,-11.42299l4.99756,13.07763l-29.89172,11.42299z" fill="#c68322"/><path d="M304.42059,175.93717l10.27528,-3.92666l11.06602,28.95761l-10.27528,3.92666z" fill="#c68322"/><path d="M316.08497,181.24826l100.88457,-38.55262l4.19438,10.97587l-100.88457,38.55262z" fill="#62a8d0"/><path d="M418.00044,142.51009l11.1083,2.03193l-5.81641,9.17824l-11.1083,-2.03193z" fill="#62a8d0"/></g><path d="M214.5,128c0,-14.91169 12.08831,-27 27,-27c14.91169,0 27,12.08831 27,27c0,14.91169 -12.08831,27 -27,27c-14.91169,0 -27,-12.08831 -27,-27z" fill="#000000" stroke="#000000" stroke-width="1" stroke-linecap="butt"/><path d="M241,151l-1,91" fill="none" stroke="#000000" stroke-width="15" stroke-linecap="round"/><path d="M281.16384,202.83761c0,0 -23.99458,-8.924 -31.29266,-21.51486c-10.38653,-9.75606 -9.51436,-24.16033 -9.51436,-24.16033" fill="none" stroke="#000000" stroke-width="15" stroke-linecap="round"/><path d="M282.75321,202.71513c0,0 -33.7177,-3.36897 -38.70954,-15.54827c-10.17989,-6.59733 -2.66769,-28.88196 -2.66769,-28.88196" fill="none" stroke="#000000" stroke-width="15" stroke-linecap="round"/><path d="M241.22132,244.65655c0,0 11.23789,18.76722 12.94741,30.98893c4.15939,10.04509 1.73913,39.698 1.73913,39.698" fill="none" stroke="#000000" stroke-width="15" stroke-linecap="round"/><path d="M241.58021,245.20587c0,0 -2.97546,19.36487 -10.89067,34.71051c-2.94785,11.18364 -14.14057,30.87777 -14.14057,30.87777" fill="none" stroke="#000000" stroke-width="15" stroke-linecap="round"/></g></g></svg>