<svg version="1.1" xmlns="http://www.w3.org/2000/svg" xmlns:xlink="http://www.w3.org/1999/xlink" width="68.0532" height="103.5" viewBox="0,0,68.0532,103.5"><g transform="translate(-205.9734,-128.5)"><g data-paper-data="{&quot;isPaintingLayer&quot;:true}" fill-rule="nonzero" stroke-linejoin="miter" stroke-miterlimit="10" stroke-dasharray="" stroke-dashoffset="0" style="mix-blend-mode: normal"><path d="M208.5266,164.5v-18.5c0,0 47.50835,-0.51064 57.51596,-0.51064c3.45148,0 7.98404,0.51064 7.98404,0.51064v18.5z" data-paper-data="{&quot;index&quot;:null}" fill="#4a678c" stroke="none" stroke-width="0" stroke-linecap="butt"></path><path d="M205.9734,164.5v-36h15v36z" data-paper-data="{&quot;index&quot;:null}" fill="#4a678c" stroke="none" stroke-width="0" stroke-linecap="butt"></path><path d="M233.23936,164.51064v-36l15,8.93617v27.06383z" data-paper-data="{&quot;index&quot;:null}" fill="#4a678c" stroke="none" stroke-width="0" stroke-linecap="butt"></path><path d="M215.47341,232v-74.5h47.20229v74.5z" data-paper-data="{&quot;index&quot;:null}" fill="#4a678c" stroke="none" stroke-width="0" stroke-linecap="butt"></path><path d="M232.4734,183v-17.5h14v17.5z" data-paper-data="{&quot;index&quot;:null}" fill="#000000" stroke="none" stroke-width="0" stroke-linecap="butt"></path><path d="M206.2234,164v-5c0,0 19.96779,2.64846 32.74819,2.74348c13.46477,0.10011 34.50181,-2.24348 34.50181,-2.24348l-0.25,4.5z" data-paper-data="{&quot;index&quot;:null}" fill="#253345" stroke="none" stroke-width="0" stroke-linecap="butt"></path><path d="M240.30673,210.5l-8.33333,-7v-21h15v21z" data-paper-data="{&quot;index&quot;:null}" fill="#66a8ff" stroke="none" stroke-width="0" stroke-linecap="butt"></path><path d="M248.3675,188.4407l5.8983,2.4407l4.0678,-3.8644l3.8644,4.0677" data-paper-data="{&quot;index&quot;:null}" fill="none" stroke="#253345" stroke-width="2" stroke-linecap="round"></path><path d="M248.9776,181.322l4.678,2.0339l2.6441,5.4916" data-paper-data="{&quot;index&quot;:null}" fill="none" stroke="#253345" stroke-width="2" stroke-linecap="round"></path><path d="M258.3336,188.0339l0.4068,5.6949l-3.6611,4.8814" data-paper-data="{&quot;index&quot;:null}" fill="none" stroke="#253345" stroke-width="2" stroke-linecap="round"></path><path d="M253.859,183.9661l2.4407,-4.2712h4.4745" data-paper-data="{&quot;index&quot;:null}" fill="none" stroke="#253345" stroke-width="2" stroke-linecap="round"></path><path d="M263.7681,215.0848l-5.4915,2.8474l-1.6271,-4.4746h-5.2882" data-paper-data="{&quot;index&quot;:null}" fill="none" stroke="#253345" stroke-width="2" stroke-linecap="round"></path><path d="M251.5647,224.6441l1.017,-6.1017l3.661,-4.2712" data-paper-data="{&quot;index&quot;:null}" fill="none" stroke="#253345" stroke-width="2" stroke-linecap="round"></path><path d="M221.52,217.1186l-3.0508,-6.7118v-7.7288" data-paper-data="{&quot;index&quot;:null}" fill="none" stroke="#253345" stroke-width="2" stroke-linecap="round"></path><path d="M255.8359,213.0508l-1.8305,-5.0847" data-paper-data="{&quot;index&quot;:null}" fill="none" stroke="#253345" stroke-width="2" stroke-linecap="round"></path><path d="M221.52,196.5763l0.8136,9.7627l-3.2543,4.4746" data-paper-data="{&quot;index&quot;:null}" fill="none" stroke="#253345" stroke-width="2" stroke-linecap="round"></path><path d="M258.1117,159.29788v-14.77954l15,-4.88004v19.65957z" data-paper-data="{&quot;index&quot;:null}" fill="#4a678c" stroke="none" stroke-width="0" stroke-linecap="butt"></path><path d="M210.383,161.5957l4.5957,-5.617l7.4043,-0.2553" data-paper-data="{&quot;index&quot;:null}" fill="none" stroke="#253345" stroke-width="2" stroke-linecap="round"></path><path d="M215.7447,147.2979l3.5744,3.0638l-2.0425,4.5957" data-paper-data="{&quot;index&quot;:null}" fill="none" stroke="#253345" stroke-width="2" stroke-linecap="round"></path><path d="M228.2553,156.7447l-5.617,2.8085l-3.0638,-3.5745" data-paper-data="{&quot;index&quot;:null}" fill="none" stroke="#253345" stroke-width="2" stroke-linecap="round"></path><path d="M214.3404,156.8936l-5.1064,-2.8085v-6.383" data-paper-data="{&quot;index&quot;:null}" fill="none" stroke="#253345" stroke-width="2" stroke-linecap="round"></path><path d="M224.9362,151.1277l-5.6171,-0.766" data-paper-data="{&quot;index&quot;:null}" fill="none" stroke="#253345" stroke-width="2" stroke-linecap="round"></path></g></g></svg>