<svg version="1.1" xmlns="http://www.w3.org/2000/svg" xmlns:xlink="http://www.w3.org/1999/xlink" width="193.71573" height="222.34347" viewBox="0,0,193.71573,222.34347"><g transform="translate(-209.04897,-100.5)"><g data-paper-data="{&quot;isPaintingLayer&quot;:true}" fill-rule="nonzero" stroke-linejoin="miter" stroke-miterlimit="10" stroke-dasharray="" stroke-dashoffset="0" style="mix-blend-mode: normal"><g stroke="none" stroke-width="0" stroke-linecap="butt"><path d="M257.73311,196.72211l28.59756,-14.35895l6.28204,12.51143l-28.59756,14.35895z" fill="#c68322"/><path d="M281.84726,175.66249l9.83041,-4.9359l13.91024,27.70389l-9.83041,4.9359z" fill="#c68322"/><path d="M293.98486,179.7788l96.51677,-48.46148l5.27243,10.50067l-96.51677,48.46148z" fill="#62a8d0"/><path d="M391.50876,131.02947l11.25595,0.90933l-4.86805,9.71456l-11.25595,-0.90933z" fill="#62a8d0"/></g><path d="M214.5,128c0,-14.91169 12.08831,-27 27,-27c14.91169,0 27,12.08831 27,27c0,14.91169 -12.08831,27 -27,27c-14.91169,0 -27,-12.08831 -27,-27z" fill="#000000" stroke="#000000" stroke-width="1" stroke-linecap="butt"/><path d="M241,151l-1,91" fill="none" stroke="#000000" stroke-width="15" stroke-linecap="round"/><path d="M268.16384,203.8376c0,0 -10.99458,-9.924 -18.29266,-22.51486c-10.38653,-9.75606 -9.51436,-24.16033 -9.51436,-24.16033" fill="none" stroke="#000000" stroke-width="15" stroke-linecap="round"/><path d="M269.75321,203.71512c0,0 -20.7177,-4.36897 -25.70954,-16.54827c-10.17989,-6.59733 -2.66769,-28.88196 -2.66769,-28.88196" fill="none" stroke="#000000" stroke-width="15" stroke-linecap="round"/><path d="M241.22132,244.65654c0,0 11.23789,18.76722 12.94741,30.98893c4.15939,10.04509 1.73913,39.698 1.73913,39.698" fill="none" stroke="#000000" stroke-width="15" stroke-linecap="round"/><path d="M241.58021,245.20586c0,0 -2.97546,19.36487 -10.89067,34.71051c-2.94785,11.18364 -14.14057,30.87777 -14.14057,30.87777" fill="none" stroke="#000000" stroke-width="15" stroke-linecap="round"/></g></g></svg>